<svg width="18" height="18" viewBox="0 0 18 18" fill="none" xmlns="http://www.w3.org/2000/svg">
<path d="M8.96543 15.6891C8.8671 15.6896 8.76963 15.6708 8.6786 15.6336C8.58757 15.5964 8.50478 15.5417 8.43497 15.4724L2.6298 9.65977C1.90162 8.92398 1.49316 7.93059 1.49316 6.8954C1.49316 5.86021 1.90162 4.86682 2.6298 4.13103C3.36367 3.39923 4.35777 2.98828 5.39416 2.98828C6.43055 2.98828 7.42466 3.39923 8.15853 4.13103L8.96543 4.93793L9.77232 4.13103C10.5062 3.39923 11.5003 2.98828 12.5367 2.98828C13.5731 2.98828 14.5672 3.39923 15.3011 4.13103C16.0292 4.86682 16.4377 5.86021 16.4377 6.8954C16.4377 7.93059 16.0292 8.92398 15.3011 9.65977L9.49589 15.4724C9.42608 15.5417 9.34328 15.5964 9.25225 15.6336C9.16123 15.6708 9.06375 15.6896 8.96543 15.6891ZM5.39416 4.48218C5.07789 4.48075 4.76447 4.54209 4.47207 4.66264C4.17966 4.78319 3.91408 4.96056 3.69071 5.18448C3.2395 5.63808 2.9862 6.25186 2.9862 6.89167C2.9862 7.53147 3.2395 8.14525 3.69071 8.59885L8.96543 13.881L14.2401 8.59885C14.6914 8.14525 14.9447 7.53147 14.9447 6.89167C14.9447 6.25186 14.6914 5.63808 14.2401 5.18448C13.7797 4.74944 13.1702 4.50706 12.5367 4.50706C11.9032 4.50706 11.2937 4.74944 10.8332 5.18448L9.49589 6.52931C9.42643 6.59934 9.3438 6.65492 9.25276 6.69285C9.16171 6.73078 9.06406 6.75031 8.96543 6.75031C8.8668 6.75031 8.76914 6.73078 8.6781 6.69285C8.58706 6.65492 8.50442 6.59934 8.43497 6.52931L7.09761 5.18448C6.87424 4.96056 6.60866 4.78319 6.31626 4.66264C6.02386 4.54209 5.71044 4.48075 5.39416 4.48218Z" fill="#61AD4E"/>
</svg>
