<svg width="19" height="19" viewBox="0 0 19 19" fill="none" xmlns="http://www.w3.org/2000/svg">
<path d="M16.4263 9.5009L17.3003 7.9904C17.4053 7.80866 17.4339 7.59265 17.3797 7.38986C17.3255 7.18707 17.193 7.0141 17.0113 6.90898L15.4992 6.03498V4.29331C15.4992 4.08335 15.4158 3.88199 15.2673 3.73352C15.1189 3.58505 14.9175 3.50164 14.7076 3.50164H12.9667L12.0935 1.99035C11.9885 1.80853 11.8157 1.67583 11.6129 1.62144C11.5125 1.59452 11.4077 1.58766 11.3046 1.60124C11.2015 1.61483 11.1021 1.64859 11.0121 1.7006L9.49997 2.5746L7.98789 1.69981C7.80606 1.59483 7.58997 1.56639 7.38717 1.62072C7.18437 1.67506 7.01145 1.80774 6.90647 1.98956L6.03247 3.50164H4.29159C4.08163 3.50164 3.88027 3.58505 3.7318 3.73352C3.58334 3.88199 3.49993 4.08335 3.49993 4.29331V6.03419L1.98784 6.90819C1.89778 6.96024 1.81885 7.02953 1.75557 7.1121C1.6923 7.19467 1.64592 7.2889 1.61908 7.38941C1.59224 7.48991 1.58548 7.59472 1.59917 7.69784C1.61287 7.80096 1.64675 7.90038 1.69889 7.9904L2.57289 9.5009L1.69889 11.0114C1.59438 11.1933 1.56602 11.4091 1.62 11.6119C1.67398 11.8146 1.80592 11.9878 1.98705 12.0936L3.49914 12.9676V14.7085C3.49914 14.9184 3.58254 15.1198 3.73101 15.2683C3.87948 15.4167 4.08084 15.5001 4.2908 15.5001H6.03247L6.90647 17.0122C6.97656 17.132 7.07663 17.2315 7.19684 17.3009C7.31704 17.3703 7.45325 17.4073 7.59205 17.4081C7.7298 17.4081 7.86676 17.3716 7.98868 17.3012L9.49918 16.4272L11.0113 17.3012C11.193 17.4062 11.409 17.4348 11.6118 17.3806C11.8146 17.3264 11.9876 17.1939 12.0927 17.0122L12.9659 15.5001H14.7068C14.9167 15.5001 15.1181 15.4167 15.2666 15.2683C15.415 15.1198 15.4984 14.9184 15.4984 14.7085V12.9676L17.0105 12.0936C17.1006 12.0416 17.1795 11.9723 17.2428 11.8897C17.3061 11.8071 17.3524 11.7129 17.3793 11.6124C17.4061 11.5119 17.4129 11.4071 17.3992 11.3039C17.3855 11.2008 17.3516 11.1014 17.2995 11.0114L16.4263 9.5009ZM7.52001 5.53465C7.83506 5.53475 8.13717 5.66 8.35986 5.88285C8.58256 6.1057 8.70762 6.40789 8.70751 6.72294C8.70741 7.03799 8.58215 7.34009 8.35931 7.56279C8.13646 7.78549 7.83427 7.91054 7.51922 7.91044C7.20417 7.91033 6.90207 7.78508 6.67937 7.56223C6.45667 7.33938 6.33161 7.03719 6.33172 6.72215C6.33182 6.4071 6.45708 6.10499 6.67993 5.88229C6.90277 5.65959 7.20496 5.53454 7.52001 5.53465ZM7.75751 13.1346L6.49084 12.1854L11.2408 5.8521L12.5075 6.80131L7.75751 13.1346ZM11.4783 13.4513C11.3223 13.4513 11.1679 13.4205 11.0238 13.3607C10.8797 13.301 10.7488 13.2134 10.6385 13.1031C10.5282 12.9928 10.4408 12.8618 10.3811 12.7176C10.3215 12.5735 10.2908 12.419 10.2908 12.263C10.2909 12.107 10.3217 11.9526 10.3814 11.8085C10.4412 11.6644 10.5287 11.5334 10.6391 11.4232C10.7494 11.3129 10.8804 11.2254 11.0245 11.1658C11.1687 11.1061 11.3231 11.0755 11.4791 11.0755C11.7942 11.0756 12.0963 11.2009 12.319 11.4237C12.5417 11.6466 12.6667 11.9488 12.6666 12.2638C12.6665 12.5789 12.5413 12.881 12.3184 13.1037C12.0956 13.3264 11.7934 13.4514 11.4783 13.4513Z" fill="#61AD4E"/>
</svg>
