<svg width="15" height="13" viewBox="0 0 15 13" fill="none" xmlns="http://www.w3.org/2000/svg">
<path d="M7.47226 12.7008C7.37394 12.7014 7.27646 12.6825 7.18544 12.6453C7.09441 12.6082 7.01162 12.5534 6.9418 12.4841L1.13663 6.67149C0.408453 5.9357 0 4.94231 0 3.90712C0 2.87192 0.408453 1.87854 1.13663 1.14275C1.8705 0.410949 2.86461 0 3.901 0C4.93739 0 5.93149 0.410949 6.66537 1.14275L7.47226 1.94965L8.27916 1.14275C9.01303 0.410949 10.0071 0 11.0435 0C12.0799 0 13.074 0.410949 13.8079 1.14275C14.5361 1.87854 14.9445 2.87192 14.9445 3.90712C14.9445 4.94231 14.5361 5.9357 13.8079 6.67149L8.00272 12.4841C7.93291 12.5534 7.85012 12.6082 7.75909 12.6453C7.66806 12.6825 7.57059 12.7014 7.47226 12.7008ZM3.901 1.4939C3.58472 1.49247 3.27131 1.55381 2.9789 1.67436C2.6865 1.79491 2.42092 1.97228 2.19755 2.1962C1.74633 2.6498 1.49304 3.26358 1.49304 3.90338C1.49304 4.54319 1.74633 5.15697 2.19755 5.61057L7.47226 10.8928L12.747 5.61057C13.1982 5.15697 13.4515 4.54319 13.4515 3.90338C13.4515 3.26358 13.1982 2.6498 12.747 2.1962C12.2865 1.76115 11.677 1.51878 11.0435 1.51878C10.41 1.51878 9.80056 1.76115 9.34008 2.1962L8.00272 3.54103C7.93327 3.61105 7.85064 3.66664 7.75959 3.70457C7.66855 3.7425 7.57089 3.76203 7.47226 3.76203C7.37363 3.76203 7.27598 3.7425 7.18494 3.70457C7.09389 3.66664 7.01126 3.61105 6.9418 3.54103L5.60445 2.1962C5.38108 1.97228 5.1155 1.79491 4.8231 1.67436C4.53069 1.55381 4.21728 1.49247 3.901 1.4939Z" fill="white"/>
</svg>
