<svg width="20" height="20" viewBox="0 0 20 20" fill="none" xmlns="http://www.w3.org/2000/svg">
<path fill-rule="evenodd" clip-rule="evenodd" d="M9.48825 1.00855C9.78917 0.774494 10.2105 0.774494 10.5114 1.00855L18.0114 6.84188C18.2144 6.99976 18.3332 7.24252 18.3332 7.49967V16.6663C18.3332 17.3294 18.0698 17.9653 17.6009 18.4341C17.1321 18.9029 16.4963 19.1663 15.8332 19.1663H4.1665C3.50346 19.1663 2.86758 18.9029 2.39874 18.4341C1.9299 17.9653 1.6665 17.3294 1.6665 16.6663V7.49967C1.6665 7.24252 1.78523 6.99976 1.98822 6.84188L9.48825 1.00855ZM3.33317 7.90724V16.6663C3.33317 16.8873 3.42097 17.0993 3.57725 17.2556C3.73353 17.4118 3.94549 17.4997 4.1665 17.4997H15.8332C16.0542 17.4997 16.2662 17.4118 16.4224 17.2556C16.5787 17.0993 16.6665 16.8873 16.6665 16.6663V7.90724L9.99984 2.72206L3.33317 7.90724Z" fill="#27AE60"/>
<path fill-rule="evenodd" clip-rule="evenodd" d="M6.6665 10.0003C6.6665 9.54008 7.0396 9.16699 7.49984 9.16699H12.4998C12.9601 9.16699 13.3332 9.54008 13.3332 10.0003V18.3337C13.3332 18.7939 12.9601 19.167 12.4998 19.167C12.0396 19.167 11.6665 18.7939 11.6665 18.3337V10.8337H8.33317V18.3337C8.33317 18.7939 7.96007 19.167 7.49984 19.167C7.0396 19.167 6.6665 18.7939 6.6665 18.3337V10.0003Z" fill="#27AE60"/>
</svg>
