<svg width="40" height="40" viewBox="0 0 40 40" fill="none" xmlns="http://www.w3.org/2000/svg">
<g clip-path="url(#clip0_191_1198)">
<path d="M0 17.9649C0 11.6766 0 8.53245 1.22379 6.13063C2.30026 4.01794 4.01794 2.30026 6.13063 1.22379C8.53245 0 11.6766 0 17.9649 0H22.0351C28.3234 0 31.4676 0 33.8694 1.22379C35.9821 2.30026 37.6997 4.01794 38.7762 6.13063C40 8.53245 40 11.6766 40 17.9649V22.0351C40 28.3234 40 31.4676 38.7762 33.8694C37.6997 35.9821 35.9821 37.6997 33.8694 38.7762C31.4676 40 28.3234 40 22.0351 40H17.9649C11.6766 40 8.53245 40 6.13063 38.7762C4.01794 37.6997 2.30026 35.9821 1.22379 33.8694C0 31.4676 0 28.3234 0 22.0351V17.9649Z" fill="#EFF7ED"/>
<path d="M29.5233 11.7676L21.3944 7.35958C20.5296 6.90358 19.5135 6.90358 18.6487 7.35958L10.5198 11.7676C9.93607 12.0933 9.5686 12.723 9.5686 13.4396C9.5686 14.1562 9.93607 14.7859 10.5198 15.1116L18.6487 19.5196C19.0811 19.7585 19.5568 19.867 20.0324 19.867C20.508 19.867 20.9836 19.7585 21.416 19.5196L29.5449 15.1116C30.1286 14.7859 30.4962 14.1562 30.4962 13.4396C30.4746 12.723 30.107 12.0933 29.5233 11.7676Z" fill="#61AD4E"/>
<path d="M17.2868 21.0179L9.72001 17.2179C9.13628 16.9356 8.46609 16.9573 7.90398 17.3048C7.34188 17.6522 7.01758 18.2385 7.01758 18.8899V26.0773C7.01758 27.3151 7.70944 28.4442 8.81203 28.9871L16.3788 32.7871C16.6383 32.9174 16.9193 32.9825 17.2219 32.9825C17.5679 32.9825 17.8922 32.8956 18.1948 32.7002C18.7569 32.3528 19.0812 31.7665 19.0812 31.1151V23.9276C19.0812 22.6899 18.411 21.5825 17.2868 21.0179Z" fill="#457B37"/>
<path d="M32.0961 17.3048C31.534 16.9573 30.8638 16.9356 30.2801 17.2179L22.7133 21.0179C21.6107 21.5825 20.9189 22.6899 20.9189 23.9276V31.1151C20.9189 31.7665 21.2432 32.3528 21.8053 32.7002C22.108 32.8956 22.4323 32.9825 22.7782 32.9825C23.0592 32.9825 23.3403 32.9174 23.6214 32.7871L31.1882 28.9871C32.2908 28.4225 32.9825 27.3151 32.9825 26.0773V18.8899C32.9825 18.2385 32.6582 17.6522 32.0961 17.3048Z" fill="#355F2B"/>
</g>
<defs>
<clipPath id="clip0_191_1198">
<rect width="40" height="40" fill="white"/>
</clipPath>
</defs>
</svg>
