<svg width="24" height="24" viewBox="0 0 24 24" fill="none" xmlns="http://www.w3.org/2000/svg">
<path d="M2.78708 2.28078C2.88156 2.25284 2.98063 2.2438 3.07861 2.25416C3.17659 2.26452 3.27157 2.29409 3.35812 2.34117C3.44468 2.38826 3.5211 2.45193 3.58304 2.52856C3.64497 2.60519 3.6912 2.69328 3.71908 2.78778L4.26908 4.65078H18.9241C20.7641 4.65078 22.1691 6.36778 21.6391 8.16078L19.9841 13.7608C19.6321 14.9538 18.5131 15.7508 17.2691 15.7508H8.11308C6.86908 15.7508 5.75108 14.9538 5.39808 13.7608L2.28108 3.21278C2.22492 3.02222 2.24666 2.81717 2.34153 2.64263C2.43639 2.46808 2.59663 2.33731 2.78708 2.28078ZM6.25008 19.5008C6.25008 18.904 6.48713 18.3317 6.90909 17.9098C7.33104 17.4878 7.90334 17.2508 8.50008 17.2508C9.09681 17.2508 9.66911 17.4878 10.0911 17.9098C10.513 18.3317 10.7501 18.904 10.7501 19.5008C10.7501 20.0975 10.513 20.6698 10.0911 21.0918C9.66911 21.5137 9.09681 21.7508 8.50008 21.7508C7.90334 21.7508 7.33104 21.5137 6.90909 21.0918C6.48713 20.6698 6.25008 20.0975 6.25008 19.5008ZM14.2501 19.5008C14.2501 19.2053 14.3083 18.9127 14.4213 18.6397C14.5344 18.3668 14.7002 18.1187 14.9091 17.9098C15.118 17.7009 15.3661 17.5351 15.639 17.422C15.912 17.309 16.2046 17.2508 16.5001 17.2508C16.7956 17.2508 17.0881 17.309 17.3611 17.422C17.6341 17.5351 17.8821 17.7009 18.0911 17.9098C18.3 18.1187 18.4657 18.3668 18.5788 18.6397C18.6919 18.9127 18.7501 19.2053 18.7501 19.5008C18.7501 20.0975 18.513 20.6698 18.0911 21.0918C17.6691 21.5137 17.0968 21.7508 16.5001 21.7508C15.9033 21.7508 15.331 21.5137 14.9091 21.0918C14.4871 20.6698 14.2501 20.0975 14.2501 19.5008Z" fill="#61AD4E"/>
</svg>
