<svg width="20" height="20" viewBox="0 0 20 20" fill="none" xmlns="http://www.w3.org/2000/svg">
<path fill-rule="evenodd" clip-rule="evenodd" d="M16.4225 3.57733C16.7479 3.90277 16.7479 4.4304 16.4225 4.75584L4.75584 16.4225C4.4304 16.7479 3.90277 16.7479 3.57733 16.4225C3.25189 16.0971 3.25189 15.5694 3.57733 15.244L15.244 3.57733C15.5694 3.25189 16.0971 3.25189 16.4225 3.57733Z" fill="#253D4E"/>
<path fill-rule="evenodd" clip-rule="evenodd" d="M5.41667 4.16667C4.72631 4.16667 4.16667 4.72631 4.16667 5.41667C4.16667 6.10702 4.72631 6.66667 5.41667 6.66667C6.10702 6.66667 6.66667 6.10702 6.66667 5.41667C6.66667 4.72631 6.10702 4.16667 5.41667 4.16667ZM2.5 5.41667C2.5 3.80584 3.80584 2.5 5.41667 2.5C7.0275 2.5 8.33333 3.80584 8.33333 5.41667C8.33333 7.0275 7.0275 8.33333 5.41667 8.33333C3.80584 8.33333 2.5 7.0275 2.5 5.41667Z" fill="#253D4E"/>
<path fill-rule="evenodd" clip-rule="evenodd" d="M14.5834 13.3334C13.8931 13.3334 13.3334 13.8931 13.3334 14.5834C13.3334 15.2738 13.8931 15.8334 14.5834 15.8334C15.2738 15.8334 15.8334 15.2738 15.8334 14.5834C15.8334 13.8931 15.2738 13.3334 14.5834 13.3334ZM11.6667 14.5834C11.6667 12.9726 12.9726 11.6667 14.5834 11.6667C16.1942 11.6667 17.5001 12.9726 17.5001 14.5834C17.5001 16.1942 16.1942 17.5001 14.5834 17.5001C12.9726 17.5001 11.6667 16.1942 11.6667 14.5834Z" fill="#253D4E"/>
</svg>
