<svg width="107" height="16" viewBox="0 0 107 16" fill="none" xmlns="http://www.w3.org/2000/svg">
<path d="M11.9456 9.54699C11.7729 9.71432 11.6936 9.95632 11.7329 10.1937L12.3256 13.4737C12.3756 13.7517 12.2583 14.033 12.0256 14.1937C11.7976 14.3603 11.4943 14.3803 11.2456 14.247L8.29292 12.707C8.19026 12.6523 8.07626 12.623 7.95959 12.6197H7.77892C7.71626 12.629 7.65493 12.649 7.59893 12.6797L4.64559 14.227C4.49959 14.3003 4.33426 14.3263 4.17226 14.3003C3.77759 14.2257 3.51426 13.8497 3.57893 13.453L4.17226 10.173C4.21159 9.93366 4.13226 9.69032 3.95959 9.52032L1.55226 7.18699C1.35093 6.99166 1.28093 6.69833 1.37293 6.43366C1.46226 6.16966 1.69026 5.97699 1.96559 5.93366L5.27892 5.45299C5.53093 5.42699 5.75226 5.27366 5.86559 5.04699L7.32559 2.05366C7.36026 1.98699 7.40493 1.92566 7.45893 1.87366L7.51892 1.82699C7.55026 1.79233 7.58626 1.76366 7.62626 1.74033L7.69893 1.71366L7.81226 1.66699H8.09293C8.34359 1.69299 8.56426 1.84299 8.67959 2.06699L10.1589 5.04699C10.2656 5.26499 10.4729 5.41633 10.7123 5.45299L14.0256 5.93366C14.3056 5.97366 14.5396 6.16699 14.6323 6.43366C14.7196 6.70099 14.6443 6.99433 14.4389 7.18699L11.9456 9.54699Z" fill="#FDC040"/>
<path d="M29.9456 9.54699C29.7729 9.71432 29.6936 9.95632 29.7329 10.1937L30.3256 13.4737C30.3756 13.7517 30.2583 14.033 30.0256 14.1937C29.7976 14.3603 29.4943 14.3803 29.2456 14.247L26.2929 12.707C26.1903 12.6523 26.0763 12.623 25.9596 12.6197H25.7789C25.7163 12.629 25.6549 12.649 25.5989 12.6797L22.6456 14.227C22.4996 14.3003 22.3343 14.3263 22.1723 14.3003C21.7776 14.2257 21.5143 13.8497 21.5789 13.453L22.1723 10.173C22.2116 9.93366 22.1323 9.69032 21.9596 9.52032L19.5523 7.18699C19.3509 6.99166 19.2809 6.69833 19.3729 6.43366C19.4623 6.16966 19.6903 5.97699 19.9656 5.93366L23.2789 5.45299C23.5309 5.42699 23.7523 5.27366 23.8656 5.04699L25.3256 2.05366C25.3603 1.98699 25.4049 1.92566 25.4589 1.87366L25.5189 1.82699C25.5503 1.79233 25.5863 1.76366 25.6263 1.74033L25.6989 1.71366L25.8123 1.66699H26.0929C26.3436 1.69299 26.5643 1.84299 26.6796 2.06699L28.1589 5.04699C28.2656 5.26499 28.4729 5.41633 28.7123 5.45299L32.0256 5.93366C32.3056 5.97366 32.5396 6.16699 32.6323 6.43366C32.7196 6.70099 32.6443 6.99433 32.4389 7.18699L29.9456 9.54699Z" fill="#FDC040"/>
<path d="M47.9456 9.54699C47.7729 9.71432 47.6936 9.95632 47.7329 10.1937L48.3256 13.4737C48.3756 13.7517 48.2583 14.033 48.0256 14.1937C47.7976 14.3603 47.4943 14.3803 47.2456 14.247L44.2929 12.707C44.1903 12.6523 44.0763 12.623 43.9596 12.6197H43.7789C43.7163 12.629 43.6549 12.649 43.5989 12.6797L40.6456 14.227C40.4996 14.3003 40.3343 14.3263 40.1723 14.3003C39.7776 14.2257 39.5143 13.8497 39.5789 13.453L40.1723 10.173C40.2116 9.93366 40.1323 9.69032 39.9596 9.52032L37.5523 7.18699C37.3509 6.99166 37.2809 6.69833 37.3729 6.43366C37.4623 6.16966 37.6903 5.97699 37.9656 5.93366L41.2789 5.45299C41.5309 5.42699 41.7523 5.27366 41.8656 5.04699L43.3256 2.05366C43.3603 1.98699 43.4049 1.92566 43.4589 1.87366L43.5189 1.82699C43.5503 1.79233 43.5863 1.76366 43.6263 1.74033L43.6989 1.71366L43.8123 1.66699H44.0929C44.3436 1.69299 44.5643 1.84299 44.6796 2.06699L46.1589 5.04699C46.2656 5.26499 46.4729 5.41633 46.7123 5.45299L50.0256 5.93366C50.3056 5.97366 50.5396 6.16699 50.6323 6.43366C50.7196 6.70099 50.6443 6.99433 50.4389 7.18699L47.9456 9.54699Z" fill="#FDC040"/>
<path d="M65.9456 9.54699C65.7729 9.71432 65.6936 9.95632 65.7329 10.1937L66.3256 13.4737C66.3756 13.7517 66.2583 14.033 66.0256 14.1937C65.7976 14.3603 65.4943 14.3803 65.2456 14.247L62.2929 12.707C62.1903 12.6523 62.0763 12.623 61.9596 12.6197H61.7789C61.7163 12.629 61.6549 12.649 61.5989 12.6797L58.6456 14.227C58.4996 14.3003 58.3343 14.3263 58.1723 14.3003C57.7776 14.2257 57.5143 13.8497 57.5789 13.453L58.1723 10.173C58.2116 9.93366 58.1323 9.69032 57.9596 9.52032L55.5523 7.18699C55.3509 6.99166 55.2809 6.69833 55.3729 6.43366C55.4623 6.16966 55.6903 5.97699 55.9656 5.93366L59.2789 5.45299C59.5309 5.42699 59.7523 5.27366 59.8656 5.04699L61.3256 2.05366C61.3603 1.98699 61.4049 1.92566 61.4589 1.87366L61.5189 1.82699C61.5503 1.79233 61.5863 1.76366 61.6263 1.74033L61.6989 1.71366L61.8123 1.66699H62.0929C62.3436 1.69299 62.5643 1.84299 62.6796 2.06699L64.1589 5.04699C64.2656 5.26499 64.4729 5.41633 64.7123 5.45299L68.0256 5.93366C68.3056 5.97366 68.5396 6.16699 68.6323 6.43366C68.7196 6.70099 68.6443 6.99433 68.4389 7.18699L65.9456 9.54699Z" fill="#FDC040"/>
<path d="M83.9456 9.54699C83.7729 9.71432 83.6936 9.95632 83.7329 10.1937L84.3256 13.4737C84.3756 13.7517 84.2583 14.033 84.0256 14.1937C83.7976 14.3603 83.4943 14.3803 83.2456 14.247L80.2929 12.707C80.1903 12.6523 80.0763 12.623 79.9596 12.6197H79.7789C79.7163 12.629 79.6549 12.649 79.5989 12.6797L76.6456 14.227C76.4996 14.3003 76.3343 14.3263 76.1723 14.3003C75.7776 14.2257 75.5143 13.8497 75.5789 13.453L76.1723 10.173C76.2116 9.93366 76.1323 9.69032 75.9596 9.52032L73.5523 7.18699C73.3509 6.99166 73.2809 6.69833 73.3729 6.43366C73.4623 6.16966 73.6903 5.97699 73.9656 5.93366L77.2789 5.45299C77.5309 5.42699 77.7523 5.27366 77.8656 5.04699L79.3256 2.05366C79.3603 1.98699 79.4049 1.92566 79.4589 1.87366L79.5189 1.82699C79.5503 1.79233 79.5863 1.76366 79.6263 1.74033L79.6989 1.71366L79.8123 1.66699H80.0929C80.3436 1.69299 80.5643 1.84299 80.6796 2.06699L82.1589 5.04699C82.2656 5.26499 82.4729 5.41633 82.7123 5.45299L86.0256 5.93366C86.3056 5.97366 86.5396 6.16699 86.6323 6.43366C86.7196 6.70099 86.6443 6.99433 86.4389 7.18699L83.9456 9.54699Z" fill="#D5D5D5"/>
<path d="M92.7559 8.63086V8.53125C92.7559 7.69531 92.8457 6.9375 93.0254 6.25781C93.209 5.57422 93.4473 4.97656 93.7402 4.46484C94.0332 3.94922 94.3457 3.52344 94.6777 3.1875C95.0137 2.84766 95.3359 2.60352 95.6445 2.45508L95.9258 3.26367C95.6992 3.43164 95.4727 3.66406 95.2461 3.96094C95.0234 4.25781 94.8184 4.62305 94.6309 5.05664C94.4473 5.48633 94.2988 5.99023 94.1855 6.56836C94.0762 7.14258 94.0215 7.79297 94.0215 8.51953V8.64258C94.0215 9.36914 94.0762 10.0215 94.1855 10.5996C94.2988 11.1738 94.4473 11.6777 94.6309 12.1113C94.8184 12.5449 95.0234 12.9121 95.2461 13.2129C95.4727 13.5176 95.6992 13.7598 95.9258 13.9395L95.6445 14.7129C95.3359 14.5605 95.0137 14.3145 94.6777 13.9746C94.3457 13.6387 94.0332 13.2129 93.7402 12.6973C93.4473 12.1855 93.209 11.5898 93.0254 10.9102C92.8457 10.2266 92.7559 9.4668 92.7559 8.63086ZM102.682 8.95898V10.084H96.5293L96.4824 9.23438L100.162 3.46875H101.293L100.068 5.56641L97.9531 8.95898H102.682ZM101.615 3.46875V12H100.203V3.46875H101.615ZM106.432 8.53125V8.63086C106.432 9.45508 106.338 10.207 106.15 10.8867C105.967 11.5664 105.727 12.1641 105.43 12.6797C105.137 13.1953 104.818 13.625 104.475 13.9688C104.135 14.3125 103.809 14.5605 103.496 14.7129L103.209 13.9395C103.436 13.7676 103.66 13.5312 103.883 13.2305C104.109 12.9336 104.314 12.5645 104.498 12.123C104.686 11.6855 104.834 11.1777 104.943 10.5996C105.057 10.0215 105.113 9.36914 105.113 8.64258V8.51953C105.113 7.79297 105.055 7.14062 104.938 6.5625C104.824 5.98047 104.672 5.47266 104.48 5.03906C104.289 4.60156 104.082 4.23242 103.859 3.93164C103.637 3.63086 103.42 3.39648 103.209 3.22852L103.496 2.45508C103.809 2.60352 104.135 2.84961 104.475 3.19336C104.818 3.53711 105.137 3.96875 105.43 4.48828C105.727 5.00391 105.967 5.60156 106.15 6.28125C106.338 6.96094 106.432 7.71094 106.432 8.53125Z" fill="#ADADAD"/>
</svg>
