<svg width="55" height="42" viewBox="0 0 55 42" fill="none" xmlns="http://www.w3.org/2000/svg">
<path d="M0 0H39C46.5425 0 50.3137 0 52.6569 2.34315C55 4.68629 55 8.45753 55 16V26C55 33.5425 55 37.3137 52.6569 39.6569C50.3137 42 46.5425 42 39 42H0V0Z" fill="url(#paint0_radial_191_1213)"/>
<path fill-rule="evenodd" clip-rule="evenodd" d="M26.5 13C22.634 13 19.5 16.134 19.5 20C19.5 23.866 22.634 27 26.5 27C30.366 27 33.5 23.866 33.5 20C33.5 16.134 30.366 13 26.5 13ZM17.5 20C17.5 15.0294 21.5294 11 26.5 11C31.4706 11 35.5 15.0294 35.5 20C35.5 24.9706 31.4706 29 26.5 29C21.5294 29 17.5 24.9706 17.5 20Z" fill="white"/>
<path fill-rule="evenodd" clip-rule="evenodd" d="M31.4428 24.9428C31.8333 24.5523 32.4665 24.5523 32.857 24.9428L37.207 29.2928C37.5975 29.6833 37.5975 30.3165 37.207 30.707C36.8165 31.0975 36.1833 31.0975 35.7928 30.707L31.4428 26.357C31.0523 25.9665 31.0523 25.3333 31.4428 24.9428Z" fill="white"/>
<defs>
<radialGradient id="paint0_radial_191_1213" cx="0" cy="0" r="1" gradientUnits="userSpaceOnUse" gradientTransform="translate(27.5 21) rotate(90) scale(21 27.5)">
<stop stop-color="#21A85A"/>
<stop offset="1" stop-color="#008438"/>
</radialGradient>
</defs>
</svg>
