<svg width="40" height="40" viewBox="0 0 40 40" fill="none" xmlns="http://www.w3.org/2000/svg">
<path opacity="0.6" d="M6.66665 29.9999V11.8332L4.08332 6.24988C3.88888 5.83322 3.87499 5.40933 4.04165 4.97822C4.20832 4.54711 4.49999 4.23488 4.91665 4.04155C5.33332 3.84822 5.75721 3.82766 6.18832 3.97988C6.61943 4.13211 6.93165 4.41655 7.12499 4.83322L10.3333 11.7499H29.6667L32.875 4.83322C33.0694 4.41655 33.3822 4.12488 33.8133 3.95822C34.2444 3.79155 34.6678 3.81933 35.0833 4.04155C35.5 4.23599 35.7917 4.54877 35.9583 4.97988C36.125 5.41099 36.1111 5.83433 35.9167 6.24988L33.3333 11.8332V29.9999C33.3333 30.9165 33.0072 31.7015 32.355 32.3549C31.7028 33.0082 30.9178 33.3343 30 33.3332H9.99999C9.08332 33.3332 8.29888 33.0071 7.64665 32.3549C6.99443 31.7027 6.66777 30.9177 6.66665 29.9999ZM16.6667 21.6665H23.3333C23.8055 21.6665 24.2017 21.5065 24.5217 21.1865C24.8417 20.8665 25.0011 20.471 25 19.9999C24.9989 19.5288 24.8389 19.1332 24.52 18.8132C24.2011 18.4932 23.8055 18.3332 23.3333 18.3332H16.6667C16.1944 18.3332 15.7989 18.4932 15.48 18.8132C15.1611 19.1332 15.0011 19.5288 15 19.9999C14.9989 20.471 15.1589 20.8671 15.48 21.1882C15.8011 21.5093 16.1967 21.6688 16.6667 21.6665Z" fill="black"/>
</svg>
