<svg width="30" height="30" viewBox="0 0 30 30" fill="none" xmlns="http://www.w3.org/2000/svg">
<path d="M11.35 4H5.05C4.77152 4 4.50445 4.11062 4.30754 4.30754C4.11062 4.50445 4 4.77152 4 5.05V11.35C4 11.6285 4.11062 11.8955 4.30754 12.0925C4.50445 12.2894 4.77152 12.4 5.05 12.4H11.35C11.6285 12.4 11.8955 12.2894 12.0925 12.0925C12.2894 11.8955 12.4 11.6285 12.4 11.35V5.05C12.4 4.77152 12.2894 4.50445 12.0925 4.30754C11.8955 4.11062 11.6285 4 11.35 4ZM11.35 16.6H5.05C4.77152 16.6 4.50445 16.7106 4.30754 16.9075C4.11062 17.1045 4 17.3715 4 17.65V23.95C4 24.2285 4.11062 24.4955 4.30754 24.6925C4.50445 24.8894 4.77152 25 5.05 25H11.35C11.6285 25 11.8955 24.8894 12.0925 24.6925C12.2894 24.4955 12.4 24.2285 12.4 23.95V17.65C12.4 17.3715 12.2894 17.1045 12.0925 16.9075C11.8955 16.7106 11.6285 16.6 11.35 16.6ZM23.95 4H17.65C17.3715 4 17.1045 4.11062 16.9075 4.30754C16.7106 4.50445 16.6 4.77152 16.6 5.05V11.35C16.6 11.6285 16.7106 11.8955 16.9075 12.0925C17.1045 12.2894 17.3715 12.4 17.65 12.4H23.95C24.2285 12.4 24.4955 12.2894 24.6925 12.0925C24.8894 11.8955 25 11.6285 25 11.35V5.05C25 4.77152 24.8894 4.50445 24.6925 4.30754C24.4955 4.11062 24.2285 4 23.95 4Z" fill="#727272" stroke="#727272" stroke-width="2" stroke-linejoin="round"/>
<path d="M16.5996 16.5996H24.9996H16.5996ZM20.7996 20.7996H24.9996H20.7996ZM16.5996 24.9996H24.9996H16.5996Z" fill="#727272"/>
<path d="M16.5996 16.5996H24.9996M20.7996 20.7996H24.9996M16.5996 24.9996H24.9996" stroke="#727272" stroke-width="2" stroke-linecap="round" stroke-linejoin="round"/>
</svg>
