<svg width="20" height="20" viewBox="0 0 20 20" fill="none" xmlns="http://www.w3.org/2000/svg">
<path d="M0.599976 7.60001C0.599976 5.71401 0.599976 4.77201 1.18598 4.18601C1.77198 3.60001 2.71398 3.60001 4.59998 3.60001H14.6C16.486 3.60001 17.428 3.60001 18.014 4.18601C18.6 4.77201 18.6 5.71401 18.6 7.60001H0.599976Z" fill="#4A7E3D"/>
<path d="M16.6 3.60001H2.59998C1.49541 3.60001 0.599976 4.49544 0.599976 5.60001V16.6C0.599976 17.7046 1.49541 18.6 2.59998 18.6H16.6C17.7045 18.6 18.6 17.7046 18.6 16.6V5.60001C18.6 4.49544 17.7045 3.60001 16.6 3.60001Z" stroke="#61AD4E" stroke-width="1.2"/>
<path d="M4.59998 0.600006V3.60001M14.6 0.600006V3.60001" stroke="#61AD4E" stroke-width="1.2" stroke-linecap="round"/>
<path d="M8.09998 9.60001H5.09998C4.82383 9.60001 4.59998 9.82386 4.59998 10.1V11.1C4.59998 11.3761 4.82383 11.6 5.09998 11.6H8.09998C8.37612 11.6 8.59998 11.3761 8.59998 11.1V10.1C8.59998 9.82386 8.37612 9.60001 8.09998 9.60001Z" fill="#61AD4E"/>
<path d="M8.09998 13.6H5.09998C4.82383 13.6 4.59998 13.8239 4.59998 14.1V15.1C4.59998 15.3761 4.82383 15.6 5.09998 15.6H8.09998C8.37612 15.6 8.59998 15.3761 8.59998 15.1V14.1C8.59998 13.8239 8.37612 13.6 8.09998 13.6Z" fill="#61AD4E"/>
<path d="M14.1 9.60001H11.1C10.8238 9.60001 10.6 9.82386 10.6 10.1V11.1C10.6 11.3761 10.8238 11.6 11.1 11.6H14.1C14.3761 11.6 14.6 11.3761 14.6 11.1V10.1C14.6 9.82386 14.3761 9.60001 14.1 9.60001Z" fill="#61AD4E"/>
<path d="M14.1 13.6H11.1C10.8238 13.6 10.6 13.8239 10.6 14.1V15.1C10.6 15.3761 10.8238 15.6 11.1 15.6H14.1C14.3761 15.6 14.6 15.3761 14.6 15.1V14.1C14.6 13.8239 14.3761 13.6 14.1 13.6Z" fill="#61AD4E"/>
</svg>
