<svg width="20" height="23" viewBox="0 0 20 23" fill="none" xmlns="http://www.w3.org/2000/svg">
<path d="M3.75 22.5C3.0625 22.5 2.47417 22.2554 1.985 21.7663C1.49584 21.2771 1.25084 20.6883 1.25 20V3.75C0.895838 3.75 0.599171 3.63 0.360004 3.39C0.120838 3.15 0.000837644 2.85333 4.31034e-06 2.5C-0.000829023 2.14667 0.119171 1.85 0.360004 1.61C0.600838 1.37 0.897504 1.25 1.25 1.25H6.25C6.25 0.895833 6.37 0.599167 6.61 0.36C6.85 0.120833 7.14667 0.000833333 7.5 0H12.5C12.8542 0 13.1513 0.12 13.3913 0.36C13.6313 0.6 13.7508 0.896667 13.75 1.25H18.75C19.1042 1.25 19.4013 1.37 19.6413 1.61C19.8813 1.85 20.0008 2.14667 20 2.5C19.9992 2.85333 19.8792 3.15042 19.64 3.39125C19.4008 3.63208 19.1042 3.75167 18.75 3.75V20C18.75 20.6875 18.5054 21.2763 18.0163 21.7663C17.5271 22.2563 16.9383 22.5008 16.25 22.5H3.75ZM7.5 17.5C7.85417 17.5 8.15125 17.38 8.39125 17.14C8.63125 16.9 8.75084 16.6033 8.75 16.25V7.5C8.75 7.14583 8.63 6.84917 8.39 6.61C8.15 6.37083 7.85334 6.25083 7.5 6.25C7.14667 6.24917 6.85 6.36917 6.61 6.61C6.37 6.85083 6.25 7.1475 6.25 7.5V16.25C6.25 16.6042 6.37 16.9013 6.61 17.1413C6.85 17.3813 7.14667 17.5008 7.5 17.5ZM12.5 17.5C12.8542 17.5 13.1513 17.38 13.3913 17.14C13.6313 16.9 13.7508 16.6033 13.75 16.25V7.5C13.75 7.14583 13.63 6.84917 13.39 6.61C13.15 6.37083 12.8533 6.25083 12.5 6.25C12.1467 6.24917 11.85 6.36917 11.61 6.61C11.37 6.85083 11.25 7.1475 11.25 7.5V16.25C11.25 16.6042 11.37 16.9013 11.61 17.1413C11.85 17.3813 12.1467 17.5008 12.5 17.5Z" fill="#BC2A2A"/>
</svg>
