<svg width="63" height="56" viewBox="0 0 63 56" fill="none" xmlns="http://www.w3.org/2000/svg">
<rect x="0.5" y="0.5" width="62" height="55" rx="19.5" fill="#FFDBDB"/>
<rect x="0.5" y="0.5" width="62" height="55" rx="19.5" stroke="#F54040"/>
<path d="M25.25 39.25C24.5625 39.25 23.9742 39.0054 23.485 38.5163C22.9958 38.0271 22.7508 37.4383 22.75 36.75V20.5C22.3958 20.5 22.0992 20.38 21.86 20.14C21.6208 19.9 21.5008 19.6033 21.5 19.25C21.4992 18.8967 21.6192 18.6 21.86 18.36C22.1008 18.12 22.3975 18 22.75 18H27.75C27.75 17.6458 27.87 17.3492 28.11 17.11C28.35 16.8708 28.6467 16.7508 29 16.75H34C34.3542 16.75 34.6513 16.87 34.8913 17.11C35.1313 17.35 35.2508 17.6467 35.25 18H40.25C40.6042 18 40.9013 18.12 41.1413 18.36C41.3813 18.6 41.5008 18.8967 41.5 19.25C41.4992 19.6033 41.3792 19.9004 41.14 20.1413C40.9008 20.3821 40.6042 20.5017 40.25 20.5V36.75C40.25 37.4375 40.0054 38.0263 39.5163 38.5163C39.0271 39.0063 38.4383 39.2508 37.75 39.25H25.25ZM29 34.25C29.3542 34.25 29.6513 34.13 29.8913 33.89C30.1313 33.65 30.2508 33.3533 30.25 33V24.25C30.25 23.8958 30.13 23.5992 29.89 23.36C29.65 23.1208 29.3533 23.0008 29 23C28.6467 22.9992 28.35 23.1192 28.11 23.36C27.87 23.6008 27.75 23.8975 27.75 24.25V33C27.75 33.3542 27.87 33.6513 28.11 33.8913C28.35 34.1313 28.6467 34.2508 29 34.25ZM34 34.25C34.3542 34.25 34.6513 34.13 34.8913 33.89C35.1313 33.65 35.2508 33.3533 35.25 33V24.25C35.25 23.8958 35.13 23.5992 34.89 23.36C34.65 23.1208 34.3533 23.0008 34 23C33.6467 22.9992 33.35 23.1192 33.11 23.36C32.87 23.6008 32.75 23.8975 32.75 24.25V33C32.75 33.3542 32.87 33.6513 33.11 33.8913C33.35 34.1313 33.6467 34.2508 34 34.25Z" fill="#BC2A2A"/>
</svg>
