<svg width="45" height="56" viewBox="0 0 45 56" fill="none" xmlns="http://www.w3.org/2000/svg">
<path opacity="0.6" fill-rule="evenodd" clip-rule="evenodd" d="M14.1666 10.0001C14.1666 9.11603 14.5178 8.26818 15.1429 7.64306C15.7681 7.01794 16.6159 6.66675 17.5 6.66675H35.8333C36.7173 6.66675 37.5652 7.01794 38.1903 7.64306C38.8154 8.26818 39.1666 9.11603 39.1666 10.0001V21.6667C39.1666 22.5508 38.8154 23.3986 38.1903 24.0238C37.5652 24.6489 36.7173 25.0001 35.8333 25.0001H32.5V18.3334C32.5 17.0073 31.9732 15.7356 31.0355 14.7979C30.0978 13.8602 28.826 13.3334 27.5 13.3334H14.1666V10.0001Z" fill="black"/>
<path opacity="0.6" fill-rule="evenodd" clip-rule="evenodd" d="M5.83331 18.3333C5.83331 17.4493 6.1845 16.6014 6.80962 15.9763C7.43474 15.3512 8.28259 15 9.16665 15H27.5C28.384 15 29.2319 15.3512 29.857 15.9763C30.4821 16.6014 30.8333 17.4493 30.8333 18.3333V30C30.8333 30.8841 30.4821 31.7319 29.857 32.357C29.2319 32.9821 28.384 33.3333 27.5 33.3333H9.16665C8.28259 33.3333 7.43474 32.9821 6.80962 32.357C6.1845 31.7319 5.83331 30.8841 5.83331 30V18.3333ZM18.3333 20C17.2282 20 16.1684 20.439 15.387 21.2204C14.6056 22.0018 14.1666 23.0616 14.1666 24.1667C14.1666 25.2717 14.6056 26.3315 15.387 27.1129C16.1684 27.8943 17.2282 28.3333 18.3333 28.3333C19.4384 28.3333 20.4982 27.8943 21.2796 27.1129C22.061 26.3315 22.5 25.2717 22.5 24.1667C22.5 23.0616 22.061 22.0018 21.2796 21.2204C20.4982 20.439 19.4384 20 18.3333 20Z" fill="black"/>
<path opacity="0.6" d="M20 24.1667C20 24.6087 19.8244 25.0326 19.5118 25.3452C19.1992 25.6577 18.7753 25.8333 18.3333 25.8333C17.8913 25.8333 17.4673 25.6577 17.1548 25.3452C16.8422 25.0326 16.6666 24.6087 16.6666 24.1667C16.6666 23.7246 16.8422 23.3007 17.1548 22.9882C17.4673 22.6756 17.8913 22.5 18.3333 22.5C18.7753 22.5 19.1992 22.6756 19.5118 22.9882C19.8244 23.3007 20 23.7246 20 24.1667Z" fill="black"/>
<path opacity="0.6" d="M6.41258 52.0801V53H1.895V52.0801H6.41258ZM2.12352 44.4688V53H0.992657V44.4688H2.12352ZM5.81492 48.1367V49.0566H1.895V48.1367H5.81492ZM6.35398 44.4688V45.3945H1.895V44.4688H6.35398ZM11.1672 51.916V48.6523C11.1672 48.4023 11.1164 48.1855 11.0148 48.002C10.9172 47.8145 10.7688 47.6699 10.5695 47.5684C10.3703 47.4668 10.1242 47.416 9.83125 47.416C9.55781 47.416 9.31758 47.4629 9.11055 47.5566C8.90742 47.6504 8.74727 47.7734 8.63008 47.9258C8.5168 48.0781 8.46016 48.2422 8.46016 48.418H7.37617C7.37617 48.1914 7.43477 47.9668 7.55195 47.7441C7.66914 47.5215 7.83711 47.3203 8.05586 47.1406C8.27852 46.957 8.54414 46.8125 8.85274 46.707C9.16524 46.5977 9.51289 46.543 9.8957 46.543C10.3566 46.543 10.7629 46.6211 11.1145 46.7773C11.4699 46.9336 11.7473 47.1699 11.9465 47.4863C12.1496 47.7988 12.2512 48.1914 12.2512 48.6641V51.6172C12.2512 51.8281 12.2688 52.0527 12.3039 52.291C12.343 52.5293 12.3996 52.7344 12.4738 52.9062V53H11.343C11.2883 52.875 11.2453 52.709 11.2141 52.502C11.1828 52.291 11.1672 52.0957 11.1672 51.916ZM11.3547 49.1562L11.3664 49.918H10.2707C9.96211 49.918 9.68672 49.9434 9.44453 49.9941C9.20234 50.041 8.99922 50.1133 8.83516 50.2109C8.67109 50.3086 8.54609 50.4316 8.46016 50.5801C8.37422 50.7246 8.33125 50.8945 8.33125 51.0898C8.33125 51.2891 8.37617 51.4707 8.46602 51.6348C8.55586 51.7988 8.69063 51.9297 8.87031 52.0273C9.05391 52.1211 9.27852 52.168 9.54414 52.168C9.87617 52.168 10.1691 52.0977 10.423 51.957C10.677 51.8164 10.8781 51.6445 11.0266 51.4414C11.1789 51.2383 11.2609 51.041 11.2727 50.8496L11.7355 51.3711C11.7082 51.5352 11.634 51.7168 11.5129 51.916C11.3918 52.1152 11.2297 52.3066 11.0266 52.4902C10.8273 52.6699 10.5891 52.8203 10.3117 52.9414C10.0383 53.0586 9.72969 53.1172 9.38594 53.1172C8.95625 53.1172 8.5793 53.0332 8.25508 52.8652C7.93477 52.6973 7.68477 52.4727 7.50508 52.1914C7.3293 51.9062 7.24141 51.5879 7.24141 51.2363C7.24141 50.8965 7.30781 50.5977 7.44063 50.3398C7.57344 50.0781 7.76484 49.8613 8.01484 49.6895C8.26484 49.5137 8.56563 49.3809 8.91719 49.291C9.26875 49.2012 9.66133 49.1562 10.0949 49.1562H11.3547ZM14.8202 47.6562V53H13.7363V46.6602H14.7909L14.8202 47.6562ZM16.8007 46.625L16.7948 47.6328C16.705 47.6133 16.6191 47.6016 16.537 47.5977C16.4589 47.5898 16.3691 47.5859 16.2675 47.5859C16.0175 47.5859 15.7968 47.625 15.6054 47.7031C15.414 47.7812 15.2519 47.8906 15.1191 48.0312C14.9863 48.1719 14.8808 48.3398 14.8027 48.5352C14.7284 48.7266 14.6796 48.9375 14.6562 49.168L14.3515 49.3438C14.3515 48.9609 14.3886 48.6016 14.4628 48.2656C14.5409 47.9297 14.6601 47.6328 14.8202 47.375C14.9804 47.1133 15.1835 46.9102 15.4296 46.7656C15.6796 46.6172 15.9765 46.543 16.3202 46.543C16.3984 46.543 16.4882 46.5527 16.5898 46.5723C16.6913 46.5879 16.7616 46.6055 16.8007 46.625ZM18.6666 48.0137V53H17.5827V46.6602H18.608L18.6666 48.0137ZM18.4088 49.5898L17.9577 49.5723C17.9616 49.1387 18.026 48.7383 18.151 48.3711C18.276 48 18.4518 47.6777 18.6784 47.4043C18.9049 47.1309 19.1745 46.9199 19.487 46.7715C19.8034 46.6191 20.153 46.543 20.5358 46.543C20.8483 46.543 21.1295 46.5859 21.3795 46.6719C21.6295 46.7539 21.8424 46.8867 22.0182 47.0703C22.1979 47.2539 22.3346 47.4922 22.4284 47.7852C22.5221 48.0742 22.569 48.4277 22.569 48.8457V53H21.4791V48.834C21.4791 48.502 21.4303 48.2363 21.3327 48.0371C21.235 47.834 21.0924 47.6875 20.9049 47.5977C20.7174 47.5039 20.487 47.457 20.2135 47.457C19.944 47.457 19.6979 47.5137 19.4752 47.627C19.2565 47.7402 19.067 47.8965 18.9069 48.0957C18.7506 48.2949 18.6276 48.5234 18.5377 48.7812C18.4518 49.0352 18.4088 49.3047 18.4088 49.5898ZM25.1732 46.6602V53H24.0834V46.6602H25.1732ZM24.0013 44.9785C24.0013 44.8027 24.0541 44.6543 24.1595 44.5332C24.2689 44.4121 24.4291 44.3516 24.64 44.3516C24.847 44.3516 25.0052 44.4121 25.1146 44.5332C25.2279 44.6543 25.2845 44.8027 25.2845 44.9785C25.2845 45.1465 25.2279 45.291 25.1146 45.4121C25.0052 45.5293 24.847 45.5879 24.64 45.5879C24.4291 45.5879 24.2689 45.5293 24.1595 45.4121C24.0541 45.291 24.0013 45.1465 24.0013 44.9785ZM27.7774 48.0137V53H26.6934V46.6602H27.7188L27.7774 48.0137ZM27.5196 49.5898L27.0684 49.5723C27.0723 49.1387 27.1368 48.7383 27.2618 48.3711C27.3868 48 27.5626 47.6777 27.7891 47.4043C28.0157 47.1309 28.2852 46.9199 28.5977 46.7715C28.9141 46.6191 29.2638 46.543 29.6466 46.543C29.9591 46.543 30.2403 46.5859 30.4903 46.6719C30.7403 46.7539 30.9532 46.8867 31.129 47.0703C31.3087 47.2539 31.4454 47.4922 31.5391 47.7852C31.6329 48.0742 31.6798 48.4277 31.6798 48.8457V53H30.5899V48.834C30.5899 48.502 30.5411 48.2363 30.4434 48.0371C30.3458 47.834 30.2032 47.6875 30.0157 47.5977C29.8282 47.5039 29.5977 47.457 29.3243 47.457C29.0548 47.457 28.8087 47.5137 28.586 47.627C28.3673 47.7402 28.1778 47.8965 28.0177 48.0957C27.8614 48.2949 27.7384 48.5234 27.6485 48.7812C27.5626 49.0352 27.5196 49.3047 27.5196 49.5898ZM37.2137 46.6602H38.198V52.8652C38.198 53.4238 38.0848 53.9004 37.8582 54.2949C37.6316 54.6895 37.3152 54.9883 36.909 55.1914C36.5066 55.3984 36.0418 55.502 35.5145 55.502C35.2957 55.502 35.0379 55.4668 34.741 55.3965C34.448 55.3301 34.159 55.2148 33.8738 55.0508C33.5926 54.8906 33.3563 54.6738 33.1648 54.4004L33.7332 53.7559C33.9988 54.0762 34.2762 54.2988 34.5652 54.4238C34.8582 54.5488 35.1473 54.6113 35.4324 54.6113C35.7762 54.6113 36.073 54.5469 36.323 54.418C36.573 54.2891 36.7664 54.0977 36.9031 53.8438C37.0438 53.5938 37.1141 53.2852 37.1141 52.918V48.0547L37.2137 46.6602ZM32.8484 49.9004V49.7773C32.8484 49.293 32.9051 48.8535 33.0184 48.459C33.1355 48.0605 33.3016 47.7188 33.5164 47.4336C33.7352 47.1484 33.9988 46.9297 34.3074 46.7773C34.616 46.6211 34.9637 46.543 35.3504 46.543C35.7488 46.543 36.0965 46.6133 36.3934 46.7539C36.6941 46.8906 36.948 47.0918 37.1551 47.3574C37.366 47.6191 37.532 47.9355 37.6531 48.3066C37.7742 48.6777 37.8582 49.0977 37.9051 49.5664V50.1055C37.8621 50.5703 37.7781 50.9883 37.6531 51.3594C37.532 51.7305 37.366 52.0469 37.1551 52.3086C36.948 52.5703 36.6941 52.7715 36.3934 52.9121C36.0926 53.0488 35.741 53.1172 35.3387 53.1172C34.9598 53.1172 34.616 53.0371 34.3074 52.877C34.0027 52.7168 33.741 52.4922 33.5223 52.2031C33.3035 51.9141 33.1355 51.5742 33.0184 51.1836C32.9051 50.7891 32.8484 50.3613 32.8484 49.9004ZM33.9324 49.7773V49.9004C33.9324 50.2168 33.9637 50.5137 34.0262 50.791C34.0926 51.0684 34.1922 51.3125 34.325 51.5234C34.4617 51.7344 34.6355 51.9004 34.8465 52.0215C35.0574 52.1387 35.3094 52.1973 35.6023 52.1973C35.9617 52.1973 36.2586 52.1211 36.493 51.9688C36.7273 51.8164 36.9129 51.6152 37.0496 51.3652C37.1902 51.1152 37.2996 50.8438 37.3777 50.5508V49.1387C37.3348 48.9238 37.2684 48.7168 37.1785 48.5176C37.0926 48.3145 36.9793 48.1348 36.8387 47.9785C36.702 47.8184 36.532 47.6914 36.3289 47.5977C36.1258 47.5039 35.8875 47.457 35.6141 47.457C35.3172 47.457 35.0613 47.5195 34.8465 47.6445C34.6355 47.7656 34.4617 47.9336 34.325 48.1484C34.1922 48.3594 34.0926 48.6055 34.0262 48.8867C33.9637 49.1641 33.9324 49.4609 33.9324 49.7773ZM43.3159 51.3184C43.3159 51.1621 43.2808 51.0176 43.2105 50.8848C43.1441 50.748 43.0054 50.625 42.7945 50.5156C42.5874 50.4023 42.2749 50.3047 41.857 50.2227C41.5054 50.1484 41.187 50.0605 40.9019 49.959C40.6206 49.8574 40.3804 49.7344 40.1812 49.5898C39.9859 49.4453 39.8355 49.2754 39.73 49.0801C39.6245 48.8848 39.5718 48.6562 39.5718 48.3945C39.5718 48.1445 39.6265 47.9082 39.7359 47.6855C39.8491 47.4629 40.0073 47.2656 40.2105 47.0938C40.4175 46.9219 40.6655 46.7871 40.9546 46.6895C41.2437 46.5918 41.5659 46.543 41.9214 46.543C42.4292 46.543 42.8628 46.6328 43.2222 46.8125C43.5816 46.9922 43.857 47.2324 44.0484 47.5332C44.2398 47.8301 44.3355 48.1602 44.3355 48.5234H43.2515C43.2515 48.3477 43.1987 48.1777 43.0933 48.0137C42.9917 47.8457 42.8413 47.707 42.6421 47.5977C42.4468 47.4883 42.2066 47.4336 41.9214 47.4336C41.6206 47.4336 41.3765 47.4805 41.189 47.5742C41.0054 47.6641 40.8706 47.7793 40.7847 47.9199C40.7027 48.0605 40.6616 48.209 40.6616 48.3652C40.6616 48.4824 40.6812 48.5879 40.7202 48.6816C40.7632 48.7715 40.8374 48.8555 40.9429 48.9336C41.0484 49.0078 41.1968 49.0781 41.3882 49.1445C41.5796 49.2109 41.8237 49.2773 42.1206 49.3438C42.6402 49.4609 43.0679 49.6016 43.4038 49.7656C43.7398 49.9297 43.9898 50.1309 44.1538 50.3691C44.3179 50.6074 44.3999 50.8965 44.3999 51.2363C44.3999 51.5137 44.3413 51.7676 44.2241 51.998C44.1109 52.2285 43.9448 52.4277 43.7261 52.5957C43.5112 52.7598 43.2534 52.8887 42.9527 52.9824C42.6558 53.0723 42.3218 53.1172 41.9507 53.1172C41.3921 53.1172 40.9195 53.0176 40.5327 52.8184C40.146 52.6191 39.853 52.3613 39.6538 52.0449C39.4546 51.7285 39.355 51.3945 39.355 51.043H40.4448C40.4605 51.3398 40.5464 51.5762 40.7027 51.752C40.8589 51.9238 41.0503 52.0469 41.2769 52.1211C41.5034 52.1914 41.728 52.2266 41.9507 52.2266C42.2476 52.2266 42.4956 52.1875 42.6948 52.1094C42.898 52.0312 43.0523 51.9238 43.1577 51.7871C43.2632 51.6504 43.3159 51.4941 43.3159 51.3184Z" fill="#101010"/>
</svg>
