<svg width="40" height="40" viewBox="0 0 40 40" fill="none" xmlns="http://www.w3.org/2000/svg">
<path opacity="0.6" fill-rule="evenodd" clip-rule="evenodd" d="M11.6666 10.0001C11.6666 9.11603 12.0178 8.26818 12.6429 7.64306C13.2681 7.01794 14.1159 6.66675 15 6.66675H33.3333C34.2173 6.66675 35.0652 7.01794 35.6903 7.64306C36.3154 8.26818 36.6666 9.11603 36.6666 10.0001V21.6667C36.6666 22.5508 36.3154 23.3986 35.6903 24.0238C35.0652 24.6489 34.2173 25.0001 33.3333 25.0001H30V18.3334C30 17.0073 29.4732 15.7356 28.5355 14.7979C27.5978 13.8602 26.326 13.3334 25 13.3334H11.6666V10.0001Z" fill="black"/>
<path opacity="0.6" fill-rule="evenodd" clip-rule="evenodd" d="M3.33331 18.3333C3.33331 17.4493 3.6845 16.6014 4.30962 15.9763C4.93474 15.3512 5.78259 15 6.66665 15H25C25.884 15 26.7319 15.3512 27.357 15.9763C27.9821 16.6014 28.3333 17.4493 28.3333 18.3333V30C28.3333 30.8841 27.9821 31.7319 27.357 32.357C26.7319 32.9821 25.884 33.3333 25 33.3333H6.66665C5.78259 33.3333 4.93474 32.9821 4.30962 32.357C3.6845 31.7319 3.33331 30.8841 3.33331 30V18.3333ZM15.8333 20C14.7282 20 13.6684 20.439 12.887 21.2204C12.1056 22.0018 11.6666 23.0616 11.6666 24.1667C11.6666 25.2717 12.1056 26.3315 12.887 27.1129C13.6684 27.8943 14.7282 28.3333 15.8333 28.3333C16.9384 28.3333 17.9982 27.8943 18.7796 27.1129C19.561 26.3315 20 25.2717 20 24.1667C20 23.0616 19.561 22.0018 18.7796 21.2204C17.9982 20.439 16.9384 20 15.8333 20Z" fill="black"/>
<path opacity="0.6" d="M17.5 24.1667C17.5 24.6087 17.3244 25.0326 17.0118 25.3452C16.6992 25.6577 16.2753 25.8333 15.8333 25.8333C15.3913 25.8333 14.9673 25.6577 14.6548 25.3452C14.3422 25.0326 14.1666 24.6087 14.1666 24.1667C14.1666 23.7246 14.3422 23.3007 14.6548 22.9882C14.9673 22.6756 15.3913 22.5 15.8333 22.5C16.2753 22.5 16.6992 22.6756 17.0118 22.9882C17.3244 23.3007 17.5 23.7246 17.5 24.1667Z" fill="black"/>
</svg>
