<svg width="56" height="24" viewBox="0 0 56 24" fill="none" xmlns="http://www.w3.org/2000/svg">
<path d="M5.0501 3C3.2911 3 2.3521 5.024 3.5101 6.317L8.9321 12.376V17.25C8.9321 17.722 9.1591 18.167 9.5451 18.45L12.6141 20.7C13.6241 21.442 15.0681 20.736 15.0681 19.5V12.376L20.4901 6.317C21.6471 5.024 20.7081 3 18.9501 3H5.0501Z" fill="#676767"/>
<g clip-path="url(#clip0_783_2920)">
<path d="M51.3905 3.86017L55.8905 8.36017C55.9431 8.41262 55.9789 8.4795 55.9934 8.55233C56.008 8.62516 56.0005 8.70066 55.9721 8.76927C55.9436 8.83787 55.8955 8.89649 55.8337 8.93769C55.7719 8.97888 55.6993 9.0008 55.625 9.00067H52.25V19.1257C52.25 19.424 52.1315 19.7102 51.9205 19.9212C51.7095 20.1321 51.4234 20.2507 51.125 20.2507C50.8266 20.2507 50.5405 20.1321 50.3295 19.9212C50.1185 19.7102 50 19.424 50 19.1257V9.00067H46.625C46.5507 9.0008 46.4781 8.97888 46.4163 8.93769C46.3545 8.89649 46.3064 8.83787 46.2779 8.76927C46.2495 8.70066 46.242 8.62516 46.2566 8.55233C46.2711 8.4795 46.3069 8.41262 46.3595 8.36017L50.8595 3.86017C50.8943 3.82525 50.9357 3.79754 50.9813 3.77864C51.0268 3.75973 51.0757 3.75 51.125 3.75C51.1743 3.75 51.2232 3.75973 51.2687 3.77864C51.3143 3.79754 51.3557 3.82525 51.3905 3.86017ZM32 18.3757C32 18.0773 32.1185 17.7912 32.3295 17.5802C32.5405 17.3692 32.8266 17.2507 33.125 17.2507H44.375C44.6734 17.2507 44.9595 17.3692 45.1705 17.5802C45.3815 17.7912 45.5 18.0773 45.5 18.3757C45.5 18.674 45.3815 18.9602 45.1705 19.1712C44.9595 19.3821 44.6734 19.5007 44.375 19.5007H33.125C32.8266 19.5007 32.5405 19.3821 32.3295 19.1712C32.1185 18.9602 32 18.674 32 18.3757ZM32 12.3757C32 12.0773 32.1185 11.7912 32.3295 11.5802C32.5405 11.3692 32.8266 11.2507 33.125 11.2507H39.875C40.1734 11.2507 40.4595 11.3692 40.6705 11.5802C40.8815 11.7912 41 12.0773 41 12.3757C41 12.674 40.8815 12.9602 40.6705 13.1712C40.4595 13.3821 40.1734 13.5007 39.875 13.5007H33.125C32.8266 13.5007 32.5405 13.3821 32.3295 13.1712C32.1185 12.9602 32 12.674 32 12.3757ZM32 6.37567C32 6.0773 32.1185 5.79115 32.3295 5.58017C32.5405 5.3692 32.8266 5.25067 33.125 5.25067H36.875C37.1734 5.25067 37.4595 5.3692 37.6705 5.58017C37.8815 5.79115 38 6.0773 38 6.37567C38 6.67404 37.8815 6.96019 37.6705 7.17117C37.4595 7.38214 37.1734 7.50067 36.875 7.50067H33.125C32.8266 7.50067 32.5405 7.38214 32.3295 7.17117C32.1185 6.96019 32 6.67404 32 6.37567Z" fill="#676767"/>
</g>
<defs>
<clipPath id="clip0_783_2920">
<rect width="24" height="24" fill="white" transform="translate(32)"/>
</clipPath>
</defs>
</svg>
