<svg width="40" height="40" viewBox="0 0 40 40" fill="none" xmlns="http://www.w3.org/2000/svg">
<path d="M33.3334 31.6666V17.4999C33.3334 17.2412 33.2731 16.986 33.1574 16.7546C33.0417 16.5231 32.8737 16.3218 32.6667 16.1666L21 7.41658C20.7115 7.20021 20.3606 7.08325 20 7.08325C19.6394 7.08325 19.2885 7.20021 19 7.41658L7.33335 16.1666C7.12636 16.3218 6.95835 16.5231 6.84264 16.7546C6.72693 16.986 6.66669 17.2412 6.66669 17.4999V31.6666C6.66669 32.1086 6.84228 32.5325 7.15484 32.8451C7.4674 33.1577 7.89133 33.3333 8.33335 33.3333H15C15.442 33.3333 15.866 33.1577 16.1785 32.8451C16.4911 32.5325 16.6667 32.1086 16.6667 31.6666V26.6666C16.6667 26.2246 16.8423 25.8006 17.1548 25.4881C17.4674 25.1755 17.8913 24.9999 18.3334 24.9999H21.6667C22.1087 24.9999 22.5326 25.1755 22.8452 25.4881C23.1578 25.8006 23.3334 26.2246 23.3334 26.6666V31.6666C23.3334 32.1086 23.5089 32.5325 23.8215 32.8451C24.1341 33.1577 24.558 33.3333 25 33.3333H31.6667C32.1087 33.3333 32.5326 33.1577 32.8452 32.8451C33.1578 32.5325 33.3334 32.1086 33.3334 31.6666Z" fill="#61AD4E"/>
</svg>
