<svg width="30" height="30" viewBox="0 0 30 30" fill="none" xmlns="http://www.w3.org/2000/svg">
<path d="M24.5743 14.5L25.8455 12.3031C25.9982 12.0388 26.0398 11.7247 25.961 11.4297C25.8822 11.1348 25.6894 10.8832 25.4252 10.7304L23.226 9.45923V6.92618C23.226 6.62082 23.1047 6.32796 22.8888 6.11203C22.6729 5.89611 22.38 5.7748 22.0747 5.7748H19.5428L18.2728 3.57681C18.1202 3.31237 17.8688 3.11938 17.5739 3.04027C17.4278 3.00112 17.2754 2.99114 17.1255 3.0109C16.9755 3.03065 16.8309 3.07976 16.7 3.15541L14.5008 4.42653L12.3017 3.15425C12.0372 3.00158 11.723 2.9602 11.428 3.03923C11.133 3.11826 10.8816 3.31122 10.7289 3.57566L9.45774 5.7748H6.92584C6.62047 5.7748 6.32761 5.89611 6.11168 6.11203C5.89576 6.32796 5.77445 6.62082 5.77445 6.92618V9.45808L3.5753 10.7292C3.4443 10.8049 3.32951 10.9057 3.23748 11.0258C3.14546 11.1459 3.078 11.2829 3.03897 11.4291C2.99994 11.5753 2.9901 11.7277 3.01002 11.8777C3.02993 12.0276 3.07921 12.1722 3.15504 12.3031L4.42617 14.5L3.15504 16.6968C3.00304 16.9614 2.9618 17.2753 3.04031 17.5701C3.11882 17.865 3.31071 18.1168 3.57414 18.2708L5.7733 19.5419V22.0738C5.7733 22.3791 5.8946 22.672 6.11053 22.8879C6.32646 23.1039 6.61932 23.2252 6.92469 23.2252H9.45774L10.7289 25.4243C10.8308 25.5986 10.9763 25.7433 11.1512 25.8442C11.326 25.9452 11.5241 25.9988 11.726 26C11.9263 26 12.1255 25.947 12.3028 25.8446L14.4997 24.5734L16.6988 25.8446C16.9631 25.9973 17.2773 26.0389 17.5722 25.9601C17.8672 25.8813 18.1187 25.6886 18.2716 25.4243L19.5416 23.2252H22.0735C22.3789 23.2252 22.6717 23.1039 22.8877 22.8879C23.1036 22.672 23.2249 22.3791 23.2249 22.0738V19.5419L25.424 18.2708C25.555 18.1951 25.6698 18.0943 25.7619 17.9742C25.8539 17.8541 25.9213 17.7171 25.9604 17.5709C25.9994 17.4247 26.0092 17.2723 25.9893 17.1223C25.9694 16.9723 25.9201 16.8277 25.8443 16.6968L24.5743 14.5ZM11.6212 8.73155C12.0794 8.73171 12.5188 8.91387 12.8427 9.23798C13.1666 9.56208 13.3484 10.0016 13.3483 10.4598C13.3481 10.918 13.166 11.3574 12.8419 11.6812C12.5178 12.0051 12.0783 12.187 11.62 12.1869C11.1618 12.1867 10.7225 12.0045 10.3986 11.6804C10.0747 11.3563 9.89281 10.9168 9.89297 10.4586C9.89312 10.0004 10.0753 9.56105 10.3994 9.23716C10.7235 8.91327 11.163 8.7314 11.6212 8.73155ZM11.9666 19.7848L10.1244 18.4043L17.0327 9.19326L18.8749 10.5738L11.9666 19.7848ZM17.3781 20.2454C17.1513 20.2453 16.9266 20.2005 16.717 20.1137C16.5075 20.0268 16.317 19.8994 16.1567 19.739C15.9963 19.5785 15.8691 19.388 15.7824 19.1783C15.6956 18.9687 15.651 18.744 15.6511 18.5172C15.6511 18.2903 15.6959 18.0656 15.7828 17.8561C15.8697 17.6465 15.997 17.4561 16.1575 17.2957C16.318 17.1353 16.5085 17.0081 16.7181 16.9214C16.9277 16.8346 17.1524 16.79 17.3793 16.7901C17.8375 16.7902 18.2769 16.9724 18.6008 17.2965C18.9247 17.6206 19.1065 18.0601 19.1064 18.5183C19.1062 18.9765 18.9241 19.4159 18.6 19.7398C18.2758 20.0637 17.8363 20.2455 17.3781 20.2454Z" fill="#727272"/>
</svg>
