<svg width="40" height="54" viewBox="0 0 40 54" fill="none" xmlns="http://www.w3.org/2000/svg">
<path opacity="0.6" d="M6.66665 29.9999V11.8332L4.08332 6.24988C3.88888 5.83322 3.87499 5.40933 4.04165 4.97822C4.20832 4.54711 4.49999 4.23488 4.91665 4.04155C5.33332 3.84822 5.75721 3.82766 6.18832 3.97988C6.61943 4.13211 6.93165 4.41655 7.12499 4.83322L10.3333 11.7499H29.6667L32.875 4.83322C33.0694 4.41655 33.3822 4.12488 33.8133 3.95822C34.2444 3.79155 34.6678 3.81933 35.0833 4.04155C35.5 4.23599 35.7917 4.54877 35.9583 4.97988C36.125 5.41099 36.1111 5.83433 35.9167 6.24988L33.3333 11.8332V29.9999C33.3333 30.9165 33.0072 31.7015 32.355 32.3549C31.7028 33.0082 30.9178 33.3343 30 33.3332H9.99999C9.08332 33.3332 8.29888 33.0071 7.64665 32.3549C6.99443 31.7027 6.66777 30.9177 6.66665 29.9999ZM16.6667 21.6665H23.3333C23.8055 21.6665 24.2017 21.5065 24.5217 21.1865C24.8417 20.8665 25.0011 20.471 25 19.9999C24.9989 19.5288 24.8389 19.1332 24.52 18.8132C24.2011 18.4932 23.8055 18.3332 23.3333 18.3332H16.6667C16.1944 18.3332 15.7989 18.4932 15.48 18.8132C15.1611 19.1332 15.0011 19.5288 15 19.9999C14.9989 20.471 15.1589 20.8671 15.48 21.1882C15.8011 21.5093 16.1967 21.6688 16.6667 21.6665Z" fill="black"/>
<path opacity="0.6" d="M10.302 48.4648V49.0039C10.302 49.6445 10.2219 50.2188 10.0617 50.7266C9.90156 51.2344 9.67109 51.666 9.37031 52.0215C9.06953 52.377 8.7082 52.6484 8.28633 52.8359C7.86836 53.0234 7.39961 53.1172 6.88008 53.1172C6.37617 53.1172 5.91328 53.0234 5.49141 52.8359C5.07344 52.6484 4.71016 52.377 4.40156 52.0215C4.09687 51.666 3.86055 51.2344 3.69258 50.7266C3.52461 50.2188 3.44062 49.6445 3.44062 49.0039V48.4648C3.44062 47.8242 3.52266 47.252 3.68672 46.748C3.85469 46.2402 4.09101 45.8086 4.3957 45.4531C4.70039 45.0938 5.06172 44.8203 5.47969 44.6328C5.90156 44.4453 6.36445 44.3516 6.86836 44.3516C7.38789 44.3516 7.85664 44.4453 8.27461 44.6328C8.69648 44.8203 9.05781 45.0938 9.35859 45.4531C9.66328 45.8086 9.8957 46.2402 10.0559 46.748C10.2199 47.252 10.302 47.8242 10.302 48.4648ZM9.18281 49.0039V48.4531C9.18281 47.9453 9.13008 47.4961 9.02461 47.1055C8.92305 46.7148 8.77266 46.3867 8.57344 46.1211C8.37422 45.8555 8.13008 45.6543 7.84101 45.5176C7.55586 45.3809 7.23164 45.3125 6.86836 45.3125C6.5168 45.3125 6.19844 45.3809 5.91328 45.5176C5.63203 45.6543 5.38984 45.8555 5.18672 46.1211C4.9875 46.3867 4.8332 46.7148 4.72383 47.1055C4.61445 47.4961 4.55976 47.9453 4.55976 48.4531V49.0039C4.55976 49.5156 4.61445 49.9688 4.72383 50.3633C4.8332 50.7539 4.98945 51.084 5.19258 51.3535C5.39961 51.6191 5.64375 51.8203 5.925 51.957C6.21016 52.0938 6.52851 52.1621 6.88008 52.1621C7.24726 52.1621 7.57344 52.0938 7.85859 51.957C8.14375 51.8203 8.38398 51.6191 8.5793 51.3535C8.77851 51.084 8.92891 50.7539 9.03047 50.3633C9.13203 49.9688 9.18281 49.5156 9.18281 49.0039ZM12.6952 47.6562V53H11.6112V46.6602H12.6659L12.6952 47.6562ZM14.6757 46.625L14.6698 47.6328C14.58 47.6133 14.4941 47.6016 14.412 47.5977C14.3339 47.5898 14.2441 47.5859 14.1425 47.5859C13.8925 47.5859 13.6718 47.625 13.4804 47.7031C13.289 47.7812 13.1269 47.8906 12.9941 48.0312C12.8612 48.1719 12.7558 48.3398 12.6777 48.5352C12.6034 48.7266 12.5546 48.9375 12.5312 49.168L12.2265 49.3438C12.2265 48.9609 12.2636 48.6016 12.3378 48.2656C12.4159 47.9297 12.5351 47.6328 12.6952 47.375C12.8554 47.1133 13.0585 46.9102 13.3046 46.7656C13.5546 46.6172 13.8515 46.543 14.1952 46.543C14.2734 46.543 14.3632 46.5527 14.4648 46.5723C14.5663 46.5879 14.6366 46.6055 14.6757 46.625ZM19.3366 51.7695V44H20.4264V53H19.4303L19.3366 51.7695ZM15.0709 49.9004V49.7773C15.0709 49.293 15.1295 48.8535 15.2467 48.459C15.3678 48.0605 15.5377 47.7188 15.7565 47.4336C15.9791 47.1484 16.2428 46.9297 16.5475 46.7773C16.8561 46.6211 17.1998 46.543 17.5787 46.543C17.9772 46.543 18.3248 46.6133 18.6217 46.7539C18.9225 46.8906 19.1764 47.0918 19.3834 47.3574C19.5944 47.6191 19.7604 47.9355 19.8815 48.3066C20.0026 48.6777 20.0866 49.0977 20.1334 49.5664V50.1055C20.0905 50.5703 20.0065 50.9883 19.8815 51.3594C19.7604 51.7305 19.5944 52.0469 19.3834 52.3086C19.1764 52.5703 18.9225 52.7715 18.6217 52.9121C18.3209 53.0488 17.9694 53.1172 17.567 53.1172C17.1959 53.1172 16.8561 53.0371 16.5475 52.877C16.2428 52.7168 15.9791 52.4922 15.7565 52.2031C15.5377 51.9141 15.3678 51.5742 15.2467 51.1836C15.1295 50.7891 15.0709 50.3613 15.0709 49.9004ZM16.1608 49.7773V49.9004C16.1608 50.2168 16.192 50.5137 16.2545 50.791C16.3209 51.0684 16.4225 51.3125 16.5592 51.5234C16.6959 51.7344 16.8698 51.9004 17.0807 52.0215C17.2916 52.1387 17.5436 52.1973 17.8366 52.1973C18.1959 52.1973 18.4909 52.1211 18.7213 51.9688C18.9557 51.8164 19.1432 51.6152 19.2838 51.3652C19.4245 51.1152 19.5338 50.8438 19.612 50.5508V49.1387C19.5651 48.9238 19.4967 48.7168 19.4069 48.5176C19.3209 48.3145 19.2077 48.1348 19.067 47.9785C18.9303 47.8184 18.7604 47.6914 18.5573 47.5977C18.358 47.5039 18.1217 47.457 17.8483 47.457C17.5514 47.457 17.2955 47.5195 17.0807 47.6445C16.8698 47.7656 16.6959 47.9336 16.5592 48.1484C16.4225 48.3594 16.3209 48.6055 16.2545 48.8867C16.192 49.1641 16.1608 49.4609 16.1608 49.7773ZM24.5248 53.1172C24.0834 53.1172 23.683 53.043 23.3236 52.8945C22.9681 52.7422 22.6615 52.5293 22.4037 52.2559C22.1498 51.9824 21.9545 51.6582 21.8177 51.2832C21.681 50.9082 21.6127 50.498 21.6127 50.0527V49.8066C21.6127 49.291 21.6888 48.832 21.8412 48.4297C21.9935 48.0234 22.2005 47.6797 22.4623 47.3984C22.724 47.1172 23.0209 46.9043 23.3529 46.7598C23.6849 46.6152 24.0287 46.543 24.3841 46.543C24.8373 46.543 25.2279 46.6211 25.556 46.7773C25.888 46.9336 26.1595 47.1523 26.3705 47.4336C26.5814 47.7109 26.7377 48.0391 26.8392 48.418C26.9408 48.793 26.9916 49.2031 26.9916 49.6484V50.1348H22.2572V49.25H25.9076V49.168C25.892 48.8867 25.8334 48.6133 25.7318 48.3477C25.6341 48.082 25.4779 47.8633 25.263 47.6914C25.0482 47.5195 24.7552 47.4336 24.3841 47.4336C24.138 47.4336 23.9115 47.4863 23.7045 47.5918C23.4974 47.6934 23.3197 47.8457 23.1712 48.0488C23.0228 48.252 22.9076 48.5 22.8255 48.793C22.7435 49.0859 22.7025 49.4238 22.7025 49.8066V50.0527C22.7025 50.3535 22.7435 50.6367 22.8255 50.9023C22.9115 51.1641 23.0345 51.3945 23.1947 51.5938C23.3587 51.793 23.556 51.9492 23.7865 52.0625C24.0209 52.1758 24.2865 52.2324 24.5834 52.2324C24.9662 52.2324 25.2904 52.1543 25.556 51.998C25.8216 51.8418 26.0541 51.6328 26.2533 51.3711L26.9095 51.8926C26.7728 52.0996 26.599 52.2969 26.388 52.4844C26.1771 52.6719 25.9173 52.8242 25.6087 52.9414C25.3041 53.0586 24.9427 53.1172 24.5248 53.1172ZM29.1212 47.6562V53H28.0372V46.6602H29.0919L29.1212 47.6562ZM31.1016 46.625L31.0958 47.6328C31.0059 47.6133 30.92 47.6016 30.838 47.5977C30.7598 47.5898 30.67 47.5859 30.5684 47.5859C30.3184 47.5859 30.0977 47.625 29.9063 47.7031C29.7149 47.7812 29.5528 47.8906 29.42 48.0312C29.2872 48.1719 29.1817 48.3398 29.1036 48.5352C29.0294 48.7266 28.9805 48.9375 28.9571 49.168L28.6524 49.3438C28.6524 48.9609 28.6895 48.6016 28.7638 48.2656C28.8419 47.9297 28.961 47.6328 29.1212 47.375C29.2813 47.1133 29.4845 46.9102 29.7305 46.7656C29.9805 46.6172 30.2774 46.543 30.6212 46.543C30.6993 46.543 30.7891 46.5527 30.8907 46.5723C30.9923 46.5879 31.0626 46.6055 31.1016 46.625ZM35.575 51.3184C35.575 51.1621 35.5398 51.0176 35.4695 50.8848C35.4031 50.748 35.2645 50.625 35.0535 50.5156C34.8465 50.4023 34.534 50.3047 34.116 50.2227C33.7645 50.1484 33.4461 50.0605 33.1609 49.959C32.8797 49.8574 32.6395 49.7344 32.4402 49.5898C32.2449 49.4453 32.0945 49.2754 31.9891 49.0801C31.8836 48.8848 31.8309 48.6562 31.8309 48.3945C31.8309 48.1445 31.8855 47.9082 31.9949 47.6855C32.1082 47.4629 32.2664 47.2656 32.4695 47.0938C32.6766 46.9219 32.9246 46.7871 33.2137 46.6895C33.5027 46.5918 33.825 46.543 34.1805 46.543C34.6883 46.543 35.1219 46.6328 35.4812 46.8125C35.8406 46.9922 36.116 47.2324 36.3074 47.5332C36.4988 47.8301 36.5945 48.1602 36.5945 48.5234H35.5105C35.5105 48.3477 35.4578 48.1777 35.3523 48.0137C35.2508 47.8457 35.1004 47.707 34.9012 47.5977C34.7059 47.4883 34.4656 47.4336 34.1805 47.4336C33.8797 47.4336 33.6355 47.4805 33.448 47.5742C33.2645 47.6641 33.1297 47.7793 33.0437 47.9199C32.9617 48.0605 32.9207 48.209 32.9207 48.3652C32.9207 48.4824 32.9402 48.5879 32.9793 48.6816C33.0223 48.7715 33.0965 48.8555 33.202 48.9336C33.3074 49.0078 33.4559 49.0781 33.6473 49.1445C33.8387 49.2109 34.0828 49.2773 34.3797 49.3438C34.8992 49.4609 35.327 49.6016 35.6629 49.7656C35.9988 49.9297 36.2488 50.1309 36.4129 50.3691C36.577 50.6074 36.659 50.8965 36.659 51.2363C36.659 51.5137 36.6004 51.7676 36.4832 51.998C36.3699 52.2285 36.2039 52.4277 35.9852 52.5957C35.7703 52.7598 35.5125 52.8887 35.2117 52.9824C34.9148 53.0723 34.5809 53.1172 34.2098 53.1172C33.6512 53.1172 33.1785 53.0176 32.7918 52.8184C32.4051 52.6191 32.1121 52.3613 31.9129 52.0449C31.7137 51.7285 31.6141 51.3945 31.6141 51.043H32.7039C32.7195 51.3398 32.8055 51.5762 32.9617 51.752C33.118 51.9238 33.3094 52.0469 33.5359 52.1211C33.7625 52.1914 33.9871 52.2266 34.2098 52.2266C34.5066 52.2266 34.7547 52.1875 34.9539 52.1094C35.157 52.0312 35.3113 51.9238 35.4168 51.7871C35.5223 51.6504 35.575 51.4941 35.575 51.3184Z" fill="#101010"/>
</svg>
