<svg width="20" height="20" viewBox="0 0 20 20" fill="none" xmlns="http://www.w3.org/2000/svg">
<path fill-rule="evenodd" clip-rule="evenodd" d="M4.7772 1.70258C5.79136 0.694251 7.46136 0.873418 8.31053 2.00842L9.3622 3.41175C10.0539 4.33508 9.9922 5.62508 9.17136 6.44092L8.97303 6.63925C8.95054 6.72251 8.94826 6.80993 8.96636 6.89425C9.01886 7.23425 9.30303 7.95425 10.493 9.13758C11.683 10.3209 12.408 10.6043 12.753 10.6576C12.84 10.6751 12.9297 10.6725 13.0155 10.6501L13.3555 10.3118C14.0855 9.58675 15.2055 9.45092 16.1089 9.94175L17.7005 10.8084C19.0647 11.5484 19.4089 13.4018 18.2922 14.5126L17.108 15.6893C16.7347 16.0601 16.233 16.3693 15.6214 16.4268C14.113 16.5676 10.5989 16.3876 6.9047 12.7151C3.4572 9.28675 2.79553 6.29675 2.71136 4.82342C2.6697 4.07842 3.02136 3.44842 3.4697 3.00342L4.7772 1.70258ZM7.31053 2.75758C6.88803 2.19342 6.10136 2.14842 5.65803 2.58925L4.3497 3.88925C4.0747 4.16258 3.94303 4.46425 3.9597 4.75258C4.02636 5.92342 4.5597 8.62092 7.78636 11.8293C11.1714 15.1943 14.2972 15.2951 15.5055 15.1818C15.7522 15.1593 15.9972 15.0309 16.2264 14.8034L17.4097 13.6259C17.8914 13.1476 17.7855 12.2759 17.1039 11.9059L15.5122 11.0401C15.0722 10.8018 14.5572 10.8801 14.2372 11.1984L13.858 11.5759L13.4164 11.1326C13.858 11.5759 13.8572 11.5768 13.8564 11.5768L13.8555 11.5784L13.853 11.5809L13.8472 11.5859L13.8347 11.5976C13.7995 11.6302 13.7616 11.6598 13.7214 11.6859C13.6547 11.7301 13.5664 11.7793 13.4555 11.8201C13.2305 11.9043 12.9322 11.9493 12.5639 11.8926C11.8414 11.7818 10.8839 11.2893 9.61136 10.0243C8.3397 8.75925 7.84303 7.80758 7.73136 7.08592C7.67386 6.71759 7.7197 6.41925 7.8047 6.19425C7.85148 6.06764 7.91846 5.94944 8.00303 5.84425L8.0297 5.81508L8.04136 5.80258L8.04636 5.79758L8.04886 5.79508L8.05053 5.79342L8.29053 5.55508C8.6472 5.19925 8.6972 4.61008 8.36136 4.16092L7.31053 2.75758Z" fill="#253D4E"/>
</svg>
