<svg width="44" height="44" viewBox="0 0 44 44" fill="none" xmlns="http://www.w3.org/2000/svg">
<rect width="44" height="44" rx="4" fill="#13C906"/>
<path d="M30.0876 22.4315L14.6876 28.9315C14.3543 29.0648 14.0376 29.0355 13.7376 28.8435C13.4376 28.6515 13.2876 28.3725 13.2876 28.0065V15.0065C13.2876 14.6398 13.4376 14.3608 13.7376 14.1695C14.0376 13.9782 14.3543 13.9488 14.6876 14.0815L30.0876 20.5815C30.5043 20.7648 30.7126 21.0732 30.7126 21.5065C30.7126 21.9398 30.5043 22.2482 30.0876 22.4315ZM15.2876 26.5065L27.1376 21.5065L15.2876 16.5065V20.0065L21.2876 21.5065L15.2876 23.0065V26.5065Z" fill="#F4F2F2"/>
</svg>
