<svg width="90" height="24" viewBox="0 0 90 24" fill="none" xmlns="http://www.w3.org/2000/svg">
<path d="M9.47488 9.36155C9.52112 9.31444 9.58406 9.28755 9.65 9.28672L10.7646 9.28776C10.8302 9.28886 10.8927 9.31573 10.9387 9.36258C10.9847 9.40943 11.0104 9.47251 11.0104 9.53822C11.0104 9.85116 11.0121 10.1634 11.0138 10.4758C11.0163 10.9448 11.0188 11.414 11.0156 11.8863C11.0151 11.9561 11.0422 12.0233 11.091 12.0732C11.1398 12.1231 11.2063 12.1515 11.276 12.1524H11.7438C11.8126 12.1515 11.8783 12.1238 11.927 12.075C11.9757 12.0263 12.0034 11.9604 12.0042 11.8915C12.0042 11.64 12.0036 11.3876 12.003 11.1328C12.0019 10.6156 12.0007 10.0884 12.0042 9.53822C12.0042 9.47251 12.0299 9.40943 12.0759 9.36258C12.1219 9.31573 12.1844 9.28886 12.25 9.28776H13.3646C13.4302 9.28886 13.4927 9.31573 13.5387 9.36258C13.5847 9.40943 13.6104 9.47251 13.6104 9.53822V14.2969C13.6104 15.2768 12.926 15.975 11.9677 15.975H10.1448C10.0789 15.9739 10.016 15.9467 9.96997 15.8994C9.92393 15.8521 9.8984 15.7885 9.89896 15.7224V14.5849C9.89895 14.5192 9.92472 14.4561 9.97071 14.4093C10.0167 14.3624 10.0792 14.3356 10.1448 14.3345H11.4583L11.774 14.3282L11.7927 14.324C11.9208 14.3073 12.0208 14.1978 12.0208 14.0621C12.0213 13.9973 11.998 13.9346 11.9554 13.886C11.9128 13.8373 11.8537 13.806 11.7896 13.7981C11.7677 13.7939 11.751 13.7939 11.751 13.7939H11.0479C10.0875 13.7939 9.40313 13.0968 9.40313 12.1158V9.53822C9.40285 9.47215 9.42864 9.40865 9.47488 9.36155Z" fill="#233266"/>
<path fill-rule="evenodd" clip-rule="evenodd" d="M5.47917 9.29298C5.44736 9.29187 5.41565 9.29712 5.38589 9.30842C5.35613 9.31972 5.32891 9.33685 5.30583 9.35881C5.28275 9.38076 5.26427 9.40711 5.25146 9.4363C5.23866 9.46549 5.23179 9.49695 5.23126 9.52883V10.5964C5.23126 10.7342 5.34896 10.8469 5.49376 10.8469H6.96563C7.0823 10.8646 7.17396 10.9512 7.18751 11.0869V11.233C7.17396 11.3624 7.08334 11.4563 6.97188 11.4667H6.24271C5.27397 11.4667 4.5823 12.1242 4.5823 13.0477V14.372C4.5823 15.2904 5.17605 15.9436 6.13959 15.9436H8.16042C8.52292 15.9436 8.81667 15.6619 8.81667 15.3175V11.0013C8.81667 9.95356 8.28751 9.29298 7.02501 9.29298H5.47917ZM6.93959 12.9966H6.47605C6.33126 12.9966 6.21355 13.1083 6.21355 13.246V14.2197C6.21546 14.2877 6.24412 14.3522 6.29329 14.3991C6.34247 14.446 6.40816 14.4715 6.47605 14.4701H6.93959C6.99352 14.4708 7.04633 14.4547 7.09074 14.4241C7.13515 14.3934 7.16896 14.3497 7.18751 14.299C7.19747 14.2737 7.20242 14.2468 7.20209 14.2197V13.2471C7.20209 13.1093 7.08438 12.9966 6.93959 12.9966Z" fill="#233266"/>
<path fill-rule="evenodd" clip-rule="evenodd" d="M0.148554 9.30611C0.178023 9.29358 0.209666 9.28699 0.241676 9.28672H2.67709C3.5698 9.28672 4.19063 9.92017 4.19063 10.8354V12.4404C4.19063 13.3546 3.5698 13.9859 2.67709 13.9859H1.61147L1.6073 15.7161C1.6073 15.8549 1.49584 15.9666 1.36042 15.9666H0.225009C0.100009 15.9635 8.97962e-06 15.8529 8.97962e-06 15.7151V9.533C-0.000265779 9.50093 0.00576729 9.46913 0.0177637 9.43939C0.0297601 9.40966 0.0474849 9.38259 0.0699259 9.35972C0.0923669 9.33685 0.119085 9.31863 0.148554 9.30611ZM1.61147 10.9335H2.31772C2.46251 10.9335 2.57813 11.0535 2.57813 11.2006V12.073C2.57855 12.1077 2.57214 12.1421 2.55927 12.1743C2.54641 12.2065 2.52734 12.2359 2.50316 12.2607C2.47898 12.2855 2.45015 12.3053 2.41833 12.3189C2.38652 12.3326 2.35233 12.3398 2.31772 12.3402H2.21355C2.01286 12.3416 1.81216 12.3416 1.61147 12.3402V10.9335Z" fill="#233266"/>
<path fill-rule="evenodd" clip-rule="evenodd" d="M16.5104 8L16.4688 8.00417C16.1818 8.0845 16.0345 8.29637 15.8751 8.5257C15.641 8.86245 15.3807 9.23686 14.6135 9.28776H14.4885C14.4703 9.28712 14.4521 9.28888 14.4344 9.29298C14.3795 9.30618 14.3296 9.33759 14.2948 9.38212C14.26 9.42665 14.2413 9.48167 14.2417 9.53822V10.6757C14.2417 10.8155 14.3521 10.9272 14.4885 10.9272H15.1604V15.7516C15.1604 15.8894 15.2688 16 15.4031 16H16.5052C16.5702 15.9992 16.6323 15.9726 16.6778 15.926C16.7232 15.8795 16.7485 15.8168 16.7479 15.7516V13.3394V10.9272H17.3729C17.5083 10.9272 17.6188 10.8155 17.6188 10.6757V9.53822C17.6188 9.47251 17.593 9.40943 17.547 9.36258C17.501 9.31573 17.4385 9.28886 17.3729 9.28776H16.7354V8.22854C16.7354 8.16837 16.7119 8.1106 16.6698 8.06766C16.6277 8.02472 16.5705 8.00109 16.5104 8Z" fill="#54C1F0"/>
<path fill-rule="evenodd" clip-rule="evenodd" d="M19.826 9.63319C20.1177 9.37751 20.4969 9.22098 20.9115 9.22098L20.9271 9.22202C21.399 9.22202 21.825 9.42239 22.1281 9.7438C22.2819 9.57928 22.4678 9.44809 22.6742 9.35834C22.8806 9.26859 23.1031 9.2222 23.3281 9.22202H23.3438C23.6916 9.22345 24.0303 9.33389 24.3124 9.53788C24.5945 9.74187 24.8058 10.0292 24.9167 10.3595C24.9646 10.5004 25 10.6381 25 10.9616V15.7026C25 15.8414 24.8896 15.9541 24.7542 15.9541H23.6396C23.5736 15.9533 23.5107 15.9264 23.4645 15.8793C23.4182 15.8322 23.3924 15.7686 23.3927 15.7026C23.3927 15.4902 23.3927 15.2782 23.3927 15.0665V15.0654C23.3929 13.7971 23.393 12.5427 23.3885 11.2945C23.3885 11.0775 23.2427 10.8896 23.0031 10.8688H22.7969C22.7238 10.874 22.6533 10.8985 22.5927 10.9397C22.476 11.017 22.4115 11.1484 22.4115 11.2945L22.4125 15.7255C22.4099 15.7892 22.3831 15.8496 22.3376 15.8941C22.2921 15.9387 22.2313 15.9643 22.1677 15.9656H21.0531C20.9872 15.9647 20.9242 15.9378 20.878 15.8907C20.8318 15.8436 20.806 15.7801 20.8063 15.7141L20.8021 15.5523V11.3008C20.8038 11.2375 20.7911 11.1746 20.7649 11.1169C20.7387 11.0592 20.6998 11.0083 20.651 10.9679C20.5842 10.9129 20.5019 10.8801 20.4156 10.874H20.2115C20.1041 10.8799 20.0035 10.9279 19.9312 11.0076C19.8589 11.0872 19.8207 11.1922 19.825 11.2998V15.7349C19.8083 15.8581 19.7073 15.953 19.5823 15.953H18.4677C18.4018 15.9519 18.3389 15.9248 18.2929 15.8775C18.2468 15.8302 18.2213 15.7666 18.2219 15.7005V9.52257C18.2213 9.4565 18.2468 9.39289 18.2929 9.34558C18.3389 9.29828 18.4018 9.27112 18.4677 9.27002H19.5823C19.6447 9.27145 19.7044 9.29623 19.7495 9.33949C19.7946 9.38275 19.8219 9.44136 19.826 9.50378V9.63319Z" fill="#54C1F0"/>
<g clip-path="url(#clip0_377_1300)">
<path d="M43.2059 9.94093H46.1549V14.6329C45.7529 14.8339 45.2169 14.9009 44.8149 14.9009C43.7429 14.9009 43.2059 14.3649 43.2059 13.1579V9.94093ZM56.6759 14.7569C55.1529 21.2059 48.6909 25.1989 42.2429 23.6759C35.7939 22.1539 31.8009 15.6909 33.3239 9.24293C34.8469 2.79393 41.3089 -1.19907 47.7569 0.323934C54.2059 1.84693 58.1989 8.30893 56.6759 14.7569ZM50.4449 8.86893C50.4408 8.63922 50.3477 8.42005 50.1853 8.25759C50.0228 8.09513 49.8037 8.00204 49.5739 7.99793H47.9649L44.2789 3.77593C43.9439 3.37393 43.4079 3.23993 42.8719 3.37393L41.5979 3.77493C41.3969 3.84193 41.3299 4.10993 41.4639 4.24393L45.4849 8.06393H39.3859C39.1849 8.06393 39.0509 8.19793 39.0509 8.39893V9.06893C39.0509 9.53793 39.4529 9.93993 39.9219 9.93993H40.8599V13.1569C40.8599 15.5699 42.1329 16.9769 44.2779 16.9769C44.9479 16.9769 45.4839 16.9099 46.1549 16.6419V18.7869C46.1549 19.3899 46.6239 19.8589 47.2269 19.8589H48.1649C48.2694 19.8523 48.3678 19.8079 48.4418 19.7338C48.5159 19.6598 48.5603 19.5614 48.5669 19.4569V9.87393H50.1089C50.3099 9.87393 50.4439 9.73993 50.4439 9.53893L50.4449 8.86893Z" fill="#7320E8"/>
</g>
<g clip-path="url(#clip1_377_1300)">
<path d="M82.721 9.6991C83.4083 9.6991 83.9394 9.88729 84.3456 10.2637C84.7517 10.64 84.9391 11.1418 84.9391 11.7691V14.7798H84.0644V14.0899H84.0331C83.6583 14.6545 83.1271 14.9367 82.5023 14.9367C81.9712 14.9367 81.5026 14.7799 81.1278 14.4663C80.7841 14.1527 80.5654 13.7136 80.5654 13.2432C80.5654 12.7413 80.7529 12.3336 81.1278 12.02C81.5026 11.7064 82.0337 11.5809 82.6585 11.5809C83.2208 11.5809 83.6583 11.675 84.0019 11.8945V11.675C84.0019 11.3823 83.893 11.0896 83.6753 10.8989L83.627 10.8596C83.3771 10.64 83.0646 10.5146 82.721 10.5146C82.19 10.5146 81.7838 10.7341 81.5026 11.1732L80.6904 10.6713C81.1902 10.0127 81.8463 9.6991 82.721 9.6991ZM78.3162 7.56641C78.8767 7.56641 79.4094 7.76224 79.8354 8.12744L79.9094 8.19361C80.3468 8.56998 80.5654 9.13454 80.5654 9.73043C80.5654 10.3263 80.3468 10.8595 79.9094 11.2672C79.4721 11.6749 78.941 11.8944 78.3162 11.8944L76.8167 11.8631V14.7798H75.8794V7.56641H78.3162ZM82.8459 12.3336C82.4711 12.3336 82.1587 12.4276 81.9088 12.6158C81.6589 12.7726 81.5339 12.9921 81.5339 13.2744C81.5339 13.5253 81.6589 13.7448 81.8463 13.8703C82.065 14.0271 82.3149 14.1212 82.5648 14.1212C82.9147 14.1212 83.2646 13.9846 83.5383 13.7369L83.5958 13.6821C83.9082 13.3999 84.0644 13.0549 84.0644 12.6785C83.7832 12.459 83.3771 12.3335 82.846 12.3335M78.3787 8.44449H76.8167V10.9537H78.3787C78.7223 10.9537 79.066 10.8282 79.2847 10.5773C79.7845 10.1069 79.7845 9.32283 79.3159 8.85234L79.2847 8.82097C79.0347 8.57008 78.7223 8.41327 78.3787 8.44464M90 9.85592L86.9072 16.9753H85.97L87.1259 14.4976L85.0953 9.88729H86.095L87.5632 13.4313H87.5945L89.0315 9.88729H90V9.85592Z" fill="#5F6368"/>
<path d="M73.099 11.2354C73.099 10.9532 73.0678 10.6709 73.0365 10.3887H69.1316V11.9882H71.3496C71.2559 12.4899 70.9748 12.9604 70.5374 13.2427V14.2776H71.8807C72.6617 13.5563 73.0991 12.4899 73.0991 11.2355" fill="#4285F4"/>
<path d="M69.1316 15.2816C70.2562 15.2816 71.1935 14.9052 71.8808 14.278L70.5375 13.243C70.1625 13.4939 69.6939 13.6507 69.1316 13.6507C68.0694 13.6507 67.1322 12.9294 66.8198 11.9258H65.4453V12.9921C66.1638 14.4034 67.5696 15.2816 69.1316 15.2816Z" fill="#34A853"/>
<path d="M66.8197 11.9256C66.6323 11.4238 66.6323 10.8593 66.8197 10.3261V9.25977H65.4452C64.8516 10.4202 64.8516 11.8002 65.4452 12.9919L66.8197 11.9256Z" fill="#FBBC04"/>
<path d="M69.1314 8.63257C69.725 8.63257 70.2873 8.85212 70.7247 9.25982L71.9118 8.06806C71.162 7.37806 70.1624 6.97036 69.1626 7.00168C67.6006 7.00168 66.1636 7.87987 65.4763 9.29119L66.8509 10.3575C67.132 9.35389 68.0692 8.63257 69.1314 8.63257Z" fill="#EA4335"/>
</g>
<defs>
<clipPath id="clip0_377_1300">
<rect width="24" height="24" fill="white" transform="translate(33)"/>
</clipPath>
<clipPath id="clip1_377_1300">
<rect width="25" height="10" fill="white" transform="translate(65 7)"/>
</clipPath>
</defs>
</svg>
