<svg width="46" height="14" viewBox="0 0 46 14" fill="none" xmlns="http://www.w3.org/2000/svg">
<g clip-path="url(#clip0_377_1320)">
<path d="M29.971 0C26.7091 0 23.7804 1.59765 23.7804 4.52941C23.7804 7.90588 28.9539 8.13647 28.9539 9.81647C28.9539 10.5247 28.077 11.1671 26.6039 11.1671C24.4994 11.1671 22.9211 10.2776 22.9211 10.2776L22.2547 13.2424C22.2547 13.2424 24.061 14 26.4811 14C30.0587 14 32.8647 12.3365 32.8647 9.33882C32.8647 5.78118 27.6737 5.55059 27.6737 3.98588C27.6737 3.42588 28.3927 2.81647 29.8658 2.81647C31.5318 2.81647 32.8997 3.45882 32.8997 3.45882L33.5661 0.592941C33.5486 0.592941 32.0579 0 29.971 0ZM0.0876859 0.214118L0 0.642353C0 0.642353 1.3679 0.872941 2.61304 1.35059C4.20892 1.89412 4.31414 2.20706 4.59474 3.17882L7.52345 13.7694H11.4518L17.467 0.214118H13.5562L9.68052 9.43765L8.10217 1.61412C7.96188 0.724706 7.22532 0.214118 6.31338 0.214118H0.0876859ZM19.0454 0.214118L15.9764 13.7694H19.7118L22.7633 0.214118H19.0454ZM39.8445 0.214118C38.9501 0.214118 38.4766 0.658824 38.1258 1.44941L32.6542 13.7694H36.565L37.3191 11.7106H42.0892L42.5452 13.7694H46L43.0011 0.214118H39.8445ZM40.353 3.88706L41.5105 8.97647H38.4064L40.353 3.88706Z" fill="#1434CB"/>
</g>
<defs>
<clipPath id="clip0_377_1320">
<rect width="46" height="14" fill="white"/>
</clipPath>
</defs>
</svg>
