<svg width="24" height="24" viewBox="0 0 24 24" fill="none" xmlns="http://www.w3.org/2000/svg">
<g clip-path="url(#clip0_632_2795)">
<path d="M2.80912 15.3628C2.8471 15.0207 2.86619 14.8496 2.91797 14.6897C2.96395 14.5479 3.02873 14.4128 3.11089 14.2884C3.20335 14.148 3.3251 14.0264 3.5685 13.7829L14.496 2.85544C15.4101 1.94142 16.8918 1.94142 17.8059 2.85544C18.7199 3.76936 18.7199 5.25124 17.8059 6.16516L6.87832 17.0927C6.63492 17.3361 6.51317 17.4578 6.37283 17.5504C6.24836 17.6325 6.11336 17.6973 5.9715 17.7432C5.81157 17.795 5.64064 17.814 5.29838 17.8521L2.49805 18.1633L2.80912 15.3628Z" fill="white" fill-opacity="0.01"/>
<path d="M15.3235 8.64765L12.0137 5.33773M2.49805 18.1633L5.29838 17.8521C5.64054 17.814 5.81167 17.795 5.9715 17.7433C6.11344 17.6974 6.24838 17.6325 6.37283 17.5504C6.51317 17.4579 6.63492 17.3361 6.87832 17.0927L17.8059 6.16528C18.7199 5.25126 18.7199 3.76938 17.8059 2.85536C16.8918 1.94144 15.4101 1.94144 14.496 2.85536L3.5686 13.7829C3.3251 14.0264 3.20335 14.1481 3.11079 14.2884C3.02869 14.4129 2.9638 14.5479 2.91787 14.6897C2.86619 14.8497 2.8472 15.0207 2.80912 15.3628L2.49805 18.1633Z" stroke="#6C737F" stroke-width="1.99943" stroke-linecap="round" stroke-linejoin="round"/>
</g>
<defs>
<clipPath id="clip0_632_2795">
<rect width="23.99" height="23.99" fill="white"/>
</clipPath>
</defs>
</svg>
