<svg width="42" height="42" viewBox="0 0 42 42" fill="none" xmlns="http://www.w3.org/2000/svg">
<path d="M0 21C0 9.40202 9.40202 0 21 0C32.598 0 42 9.40202 42 21C42 32.598 32.598 42 21 42C9.40202 42 0 32.598 0 21Z" fill="#F6F6F6"/>
<path d="M10.583 16.6354V25.3646C10.583 26.9167 10.958 28.2083 11.6768 29.1979C11.9788 29.6354 12.3643 30.0208 12.8018 30.3229C13.6559 30.9479 14.7393 31.3125 16.0205 31.3958V10.6146C12.6038 10.8333 10.583 13.0521 10.583 16.6354Z" fill="#737373"/>
<path d="M30.3226 12.8021C30.0205 12.3646 29.6351 11.9792 29.1976 11.6771C28.208 10.9583 26.9163 10.5833 25.3643 10.5833H17.583V31.4167H25.3643C29.1559 31.4167 31.4163 29.1563 31.4163 25.3646V16.6354C31.4163 15.0833 31.0413 13.7917 30.3226 12.8021ZM24.6455 23.1146C24.9476 23.4167 24.9476 23.9167 24.6455 24.2188C24.4893 24.375 24.2913 24.4479 24.0934 24.4479C23.8955 24.4479 23.6976 24.375 23.5413 24.2188L20.8747 21.5521C20.5726 21.25 20.5726 20.75 20.8747 20.4479L23.5413 17.7813C23.8434 17.4792 24.3434 17.4792 24.6455 17.7813C24.9476 18.0833 24.9476 18.5833 24.6455 18.8854L22.5413 21L24.6455 23.1146Z" fill="#737373"/>
</svg>
