<svg width="48" height="48" viewBox="0 0 48 48" fill="none" xmlns="http://www.w3.org/2000/svg">
<path d="M0 24C0 10.7452 10.7452 0 24 0C37.2548 0 48 10.7452 48 24C48 37.2548 37.2548 48 24 48C10.7452 48 0 37.2548 0 24Z" fill="#F6F6F6"/>
<path d="M32.5317 26.1458L31.3546 24.1875C31.0942 23.7604 30.865 22.9375 30.865 22.4375V20.4896C30.865 16.7083 27.7921 13.6354 24.0212 13.6354C20.24 13.6458 17.1671 16.7083 17.1671 20.4896V22.4271C17.1671 22.9271 16.9379 23.75 16.6879 24.1771L15.5108 26.1354C15.0629 26.8958 14.9587 27.7604 15.24 28.5104C15.5212 29.2708 16.1567 29.875 16.99 30.1458C18.115 30.5208 19.2504 30.7917 20.4067 30.9896C20.5212 31.0104 20.6358 31.0208 20.7504 31.0417C20.8962 31.0625 21.0525 31.0833 21.2087 31.1042C21.4796 31.1458 21.7504 31.1771 22.0317 31.1979C22.6879 31.2604 23.3546 31.2917 24.0212 31.2917C24.6775 31.2917 25.3337 31.2604 25.9796 31.1979C26.2192 31.1771 26.4587 31.1562 26.6879 31.125C26.8754 31.1042 27.0629 31.0833 27.2504 31.0521C27.365 31.0417 27.4796 31.0208 27.5942 31C28.7608 30.8125 29.9171 30.5208 31.0421 30.1458C31.8442 29.875 32.4587 29.2708 32.7504 28.5C33.0421 27.7187 32.9587 26.8646 32.5317 26.1458ZM24.7817 21.9167C24.7817 22.3542 24.4275 22.7083 23.99 22.7083C23.5525 22.7083 23.1983 22.3542 23.1983 21.9167V18.6875C23.1983 18.25 23.5525 17.8958 23.99 17.8958C24.4275 17.8958 24.7817 18.25 24.7817 18.6875V21.9167Z" fill="#737373"/>
<path d="M26.9479 32.3438C26.5104 33.5521 25.3542 34.4167 24 34.4167C23.1771 34.4167 22.3646 34.0833 21.7917 33.4896C21.4583 33.1771 21.2083 32.7604 21.0625 32.3333C21.1979 32.3542 21.3333 32.3646 21.4792 32.3854C21.7187 32.4167 21.9687 32.4479 22.2187 32.4688C22.8125 32.5208 23.4167 32.5521 24.0208 32.5521C24.6146 32.5521 25.2083 32.5208 25.7917 32.4688C26.0104 32.4479 26.2292 32.4375 26.4375 32.4063C26.6042 32.3854 26.7708 32.3646 26.9479 32.3438Z" fill="#737373"/>
</svg>
