<svg width="32" height="32" viewBox="0 0 32 32" fill="none" xmlns="http://www.w3.org/2000/svg">
<path d="M26.947 10.4267L16.6803 16.3733C16.267 16.6133 15.747 16.6133 15.3203 16.3733L5.05362 10.4267C4.32029 10 4.13362 9 4.69362 8.37333C5.08029 7.93333 5.52029 7.57333 5.98695 7.32L13.2136 3.32C14.7603 2.45333 17.267 2.45333 18.8136 3.32L26.0403 7.32C26.507 7.57333 26.947 7.94666 27.3336 8.37333C27.867 9 27.6803 10 26.947 10.4267Z" fill="#27AE60"/>
<path d="M15.2403 18.8533V27.9467C15.2403 28.96 14.2136 29.6267 13.307 29.1867C10.5603 27.84 5.93363 25.32 5.93363 25.32C4.30697 24.4 2.97363 22.08 2.97363 20.1733V13.2933C2.97363 12.24 4.0803 11.5733 4.98697 12.0933L14.5736 17.6533C14.9736 17.9067 15.2403 18.36 15.2403 18.8533Z" fill="#27AE60"/>
<path d="M16.7598 18.8533V27.9467C16.7598 28.96 17.7864 29.6267 18.6931 29.1867C21.4398 27.84 26.0664 25.32 26.0664 25.32C27.6931 24.4 29.0264 22.08 29.0264 20.1733V13.2933C29.0264 12.24 27.9198 11.5733 27.0131 12.0933L17.4264 17.6533C17.0264 17.9067 16.7598 18.36 16.7598 18.8533Z" fill="#27AE60"/>
</svg>
