<svg width="19" height="16" viewBox="0 0 19 16" fill="none" xmlns="http://www.w3.org/2000/svg">
<path fill-rule="evenodd" clip-rule="evenodd" d="M2.54621 2.43358C2.03376 2.90942 1.66667 3.7005 1.66667 5V10.8333C1.66667 12.1328 2.03376 12.9239 2.54621 13.3998C3.06984 13.886 3.87775 14.1667 5 14.1667H13.3333C14.4556 14.1667 15.2635 13.886 15.7871 13.3998C16.2996 12.9239 16.6667 12.1328 16.6667 10.8333V5C16.6667 3.7005 16.2996 2.90942 15.7871 2.43358C15.2635 1.94735 14.4556 1.66667 13.3333 1.66667H5C3.87775 1.66667 3.06984 1.94735 2.54621 2.43358ZM1.41212 1.21226C2.34683 0.344315 3.62226 0 5 0H13.3333C14.7111 0 15.9865 0.344315 16.9212 1.21226C17.8671 2.09058 18.3333 3.38283 18.3333 5V10.8333C18.3333 12.4505 17.8671 13.7428 16.9212 14.6211C15.9865 15.489 14.7111 15.8333 13.3333 15.8333H5C3.62226 15.8333 2.34683 15.489 1.41212 14.6211C0.466239 13.7428 0 12.4505 0 10.8333V5C0 3.38283 0.466239 2.09058 1.41212 1.21226Z" fill="#61AD4E"/>
<path fill-rule="evenodd" clip-rule="evenodd" d="M13.9845 4.8966C14.2717 5.2562 14.213 5.78057 13.8534 6.0678L11.244 8.15196C10.0819 9.07713 8.24306 9.07713 7.08096 8.15196L7.07891 8.15032L4.47891 6.06698C4.11975 5.77919 4.06189 5.25474 4.34968 4.89558C4.63747 4.53642 5.16193 4.47856 5.52109 4.76635L8.11993 6.84875C8.67451 7.28943 9.6512 7.2893 10.2055 6.84838V6.84838L12.8133 4.76554C13.1729 4.47831 13.6972 4.53699 13.9845 4.8966Z" fill="#61AD4E"/>
</svg>
