<svg width="19" height="19" viewBox="0 0 19 19" fill="none" xmlns="http://www.w3.org/2000/svg">
<path fill-rule="evenodd" clip-rule="evenodd" d="M5.75314 2.82172C5.20867 3.49764 5 4.50402 5 5.83333V7.5C5 7.96024 4.6269 8.33333 4.16667 8.33333C3.70643 8.33333 3.33333 7.96024 3.33333 7.5V5.83333C3.33333 4.40431 3.54133 2.9107 4.4552 1.7762C5.40042 0.602766 6.94071 0 9.16667 0C11.3926 0 12.9329 0.602766 13.8781 1.7762C14.792 2.9107 15 4.40431 15 5.83333V7.5C15 7.96024 14.6269 8.33333 14.1667 8.33333C13.7064 8.33333 13.3333 7.96024 13.3333 7.5V5.83333C13.3333 4.50402 13.1247 3.49764 12.5802 2.82172C12.0671 2.18473 11.1074 1.66667 9.16667 1.66667C7.22596 1.66667 6.26625 2.18473 5.75314 2.82172Z" fill="#61AD4E"/>
<path fill-rule="evenodd" clip-rule="evenodd" d="M9.16667 11.25C8.47631 11.25 7.91667 11.8096 7.91667 12.5C7.91667 13.1904 8.47631 13.75 9.16667 13.75C9.85702 13.75 10.4167 13.1904 10.4167 12.5C10.4167 11.8096 9.85702 11.25 9.16667 11.25ZM6.25 12.5C6.25 10.8892 7.55584 9.58333 9.16667 9.58333C10.7775 9.58333 12.0833 10.8892 12.0833 12.5C12.0833 14.1108 10.7775 15.4167 9.16667 15.4167C7.55584 15.4167 6.25 14.1108 6.25 12.5Z" fill="#61AD4E"/>
<path fill-rule="evenodd" clip-rule="evenodd" d="M2.25592 8.92259C1.89593 9.28258 1.66667 9.99404 1.66667 11.6667V13.3333C1.66667 15.006 1.89593 15.7174 2.25592 16.0774C2.61592 16.4374 3.32738 16.6667 5 16.6667H13.3333C15.006 16.6667 15.7174 16.4374 16.0774 16.0774C16.4374 15.7174 16.6667 15.006 16.6667 13.3333V11.6667C16.6667 9.99404 16.4374 9.28258 16.0774 8.92259C15.7174 8.5626 15.006 8.33333 13.3333 8.33333H5C3.32738 8.33333 2.61592 8.5626 2.25592 8.92259ZM1.07741 7.74408C1.96742 6.85407 3.33929 6.66667 5 6.66667H13.3333C14.994 6.66667 16.3659 6.85407 17.2559 7.74408C18.1459 8.63408 18.3333 10.006 18.3333 11.6667V13.3333C18.3333 14.994 18.1459 16.3659 17.2559 17.2559C16.3659 18.1459 14.994 18.3333 13.3333 18.3333H5C3.33929 18.3333 1.96742 18.1459 1.07741 17.2559C0.187405 16.3659 0 14.994 0 13.3333V11.6667C0 10.006 0.187405 8.63408 1.07741 7.74408Z" fill="#61AD4E"/>
</svg>
