<svg width="15" height="19" viewBox="0 0 15 19" fill="none" xmlns="http://www.w3.org/2000/svg">
<path fill-rule="evenodd" clip-rule="evenodd" d="M2.25592 2.25592C1.89593 2.61592 1.66667 3.32738 1.66667 5V13.3333C1.66667 15.006 1.89593 15.7174 2.25592 16.0774C2.61592 16.4374 3.32738 16.6667 5 16.6667H10C11.6726 16.6667 12.3841 16.4374 12.7441 16.0774C13.1041 15.7174 13.3333 15.006 13.3333 13.3333V5C13.3333 3.32738 13.1041 2.61592 12.7441 2.25592C12.3841 1.89593 11.6726 1.66667 10 1.66667H5C3.32738 1.66667 2.61592 1.89593 2.25592 2.25592ZM1.07741 1.07741C1.96742 0.187405 3.33929 0 5 0H10C11.6607 0 13.0326 0.187405 13.9226 1.07741C14.8126 1.96742 15 3.33929 15 5V13.3333C15 14.994 14.8126 16.3659 13.9226 17.2559C13.0326 18.1459 11.6607 18.3333 10 18.3333H5C3.33929 18.3333 1.96742 18.1459 1.07741 17.2559C0.187405 16.3659 0 14.994 0 13.3333V5C0 3.33929 0.187405 1.96742 1.07741 1.07741Z" fill="#61AD4E"/>
<path fill-rule="evenodd" clip-rule="evenodd" d="M5 4.16667C5 3.70643 5.3731 3.33333 5.83333 3.33333H9.16667C9.6269 3.33333 10 3.70643 10 4.16667C10 4.6269 9.6269 5 9.16667 5H5.83333C5.3731 5 5 4.6269 5 4.16667Z" fill="#61AD4E"/>
<path fill-rule="evenodd" clip-rule="evenodd" d="M7.5 12.5C7.03976 12.5 6.66667 12.8731 6.66667 13.3333C6.66667 13.7936 7.03976 14.1667 7.5 14.1667C7.96024 14.1667 8.33333 13.7936 8.33333 13.3333C8.33333 12.8731 7.96024 12.5 7.5 12.5ZM5 13.3333C5 11.9526 6.11929 10.8333 7.5 10.8333C8.88071 10.8333 10 11.9526 10 13.3333C10 14.714 8.88071 15.8333 7.5 15.8333C6.11929 15.8333 5 14.714 5 13.3333Z" fill="#61AD4E"/>
</svg>
