<svg width="345" height="17" viewBox="0 0 345 17" fill="none" xmlns="http://www.w3.org/2000/svg">
<line x1="0.5" y1="8" x2="122.5" y2="8.00001" stroke="#E8E9EA" stroke-linecap="round"/>
<path d="M146.654 8.46484V9.00391C146.654 9.64453 146.574 10.2188 146.414 10.7266C146.254 11.2344 146.023 11.666 145.723 12.0215C145.422 12.377 145.061 12.6484 144.639 12.8359C144.221 13.0234 143.752 13.1172 143.232 13.1172C142.729 13.1172 142.266 13.0234 141.844 12.8359C141.426 12.6484 141.062 12.377 140.754 12.0215C140.449 11.666 140.213 11.2344 140.045 10.7266C139.877 10.2188 139.793 9.64453 139.793 9.00391V8.46484C139.793 7.82422 139.875 7.25195 140.039 6.74805C140.207 6.24023 140.443 5.80859 140.748 5.45312C141.053 5.09375 141.414 4.82031 141.832 4.63281C142.254 4.44531 142.717 4.35156 143.221 4.35156C143.74 4.35156 144.209 4.44531 144.627 4.63281C145.049 4.82031 145.41 5.09375 145.711 5.45312C146.016 5.80859 146.248 6.24023 146.408 6.74805C146.572 7.25195 146.654 7.82422 146.654 8.46484ZM145.535 9.00391V8.45312C145.535 7.94531 145.482 7.49609 145.377 7.10547C145.275 6.71484 145.125 6.38672 144.926 6.12109C144.727 5.85547 144.482 5.6543 144.193 5.51758C143.908 5.38086 143.584 5.3125 143.221 5.3125C142.869 5.3125 142.551 5.38086 142.266 5.51758C141.984 5.6543 141.742 5.85547 141.539 6.12109C141.34 6.38672 141.186 6.71484 141.076 7.10547C140.967 7.49609 140.912 7.94531 140.912 8.45312V9.00391C140.912 9.51562 140.967 9.96875 141.076 10.3633C141.186 10.7539 141.342 11.084 141.545 11.3535C141.752 11.6191 141.996 11.8203 142.277 11.957C142.562 12.0938 142.881 12.1621 143.232 12.1621C143.6 12.1621 143.926 12.0938 144.211 11.957C144.496 11.8203 144.736 11.6191 144.932 11.3535C145.131 11.084 145.281 10.7539 145.383 10.3633C145.484 9.96875 145.535 9.51562 145.535 9.00391ZM149.268 7.65625V13H148.184V6.66016H149.238L149.268 7.65625ZM151.248 6.625L151.242 7.63281C151.152 7.61328 151.066 7.60156 150.984 7.59766C150.906 7.58984 150.816 7.58594 150.715 7.58594C150.465 7.58594 150.244 7.625 150.053 7.70312C149.861 7.78125 149.699 7.89062 149.566 8.03125C149.434 8.17188 149.328 8.33984 149.25 8.53516C149.176 8.72656 149.127 8.9375 149.104 9.16797L148.799 9.34375C148.799 8.96094 148.836 8.60156 148.91 8.26562C148.988 7.92969 149.107 7.63281 149.268 7.375C149.428 7.11328 149.631 6.91016 149.877 6.76562C150.127 6.61719 150.424 6.54297 150.768 6.54297C150.846 6.54297 150.936 6.55273 151.037 6.57227C151.139 6.58789 151.209 6.60547 151.248 6.625ZM156.404 4V13H155.314V4H156.404ZM157.857 9.90039V9.76562C157.857 9.30859 157.924 8.88477 158.057 8.49414C158.189 8.09961 158.381 7.75781 158.631 7.46875C158.881 7.17578 159.184 6.94922 159.539 6.78906C159.895 6.625 160.293 6.54297 160.734 6.54297C161.18 6.54297 161.58 6.625 161.936 6.78906C162.295 6.94922 162.6 7.17578 162.85 7.46875C163.104 7.75781 163.297 8.09961 163.43 8.49414C163.562 8.88477 163.629 9.30859 163.629 9.76562V9.90039C163.629 10.3574 163.562 10.7812 163.43 11.1719C163.297 11.5625 163.104 11.9043 162.85 12.1973C162.6 12.4863 162.297 12.7129 161.941 12.877C161.59 13.0371 161.191 13.1172 160.746 13.1172C160.301 13.1172 159.9 13.0371 159.545 12.877C159.189 12.7129 158.885 12.4863 158.631 12.1973C158.381 11.9043 158.189 11.5625 158.057 11.1719C157.924 10.7812 157.857 10.3574 157.857 9.90039ZM158.941 9.76562V9.90039C158.941 10.2168 158.979 10.5156 159.053 10.7969C159.127 11.0742 159.238 11.3203 159.387 11.5352C159.539 11.75 159.729 11.9199 159.955 12.0449C160.182 12.166 160.445 12.2266 160.746 12.2266C161.043 12.2266 161.303 12.166 161.525 12.0449C161.752 11.9199 161.939 11.75 162.088 11.5352C162.236 11.3203 162.348 11.0742 162.422 10.7969C162.5 10.5156 162.539 10.2168 162.539 9.90039V9.76562C162.539 9.45312 162.5 9.1582 162.422 8.88086C162.348 8.59961 162.234 8.35156 162.082 8.13672C161.934 7.91797 161.746 7.74609 161.52 7.62109C161.297 7.49609 161.035 7.43359 160.734 7.43359C160.438 7.43359 160.176 7.49609 159.949 7.62109C159.727 7.74609 159.539 7.91797 159.387 8.13672C159.238 8.35156 159.127 8.59961 159.053 8.88086C158.979 9.1582 158.941 9.45312 158.941 9.76562ZM169.096 6.66016H170.08V12.8652C170.08 13.4238 169.967 13.9004 169.74 14.2949C169.514 14.6895 169.197 14.9883 168.791 15.1914C168.389 15.3984 167.924 15.502 167.396 15.502C167.178 15.502 166.92 15.4668 166.623 15.3965C166.33 15.3301 166.041 15.2148 165.756 15.0508C165.475 14.8906 165.238 14.6738 165.047 14.4004L165.615 13.7559C165.881 14.0762 166.158 14.2988 166.447 14.4238C166.74 14.5488 167.029 14.6113 167.314 14.6113C167.658 14.6113 167.955 14.5469 168.205 14.418C168.455 14.2891 168.648 14.0977 168.785 13.8438C168.926 13.5938 168.996 13.2852 168.996 12.918V8.05469L169.096 6.66016ZM164.73 9.90039V9.77734C164.73 9.29297 164.787 8.85352 164.9 8.45898C165.018 8.06055 165.184 7.71875 165.398 7.43359C165.617 7.14844 165.881 6.92969 166.189 6.77734C166.498 6.62109 166.846 6.54297 167.232 6.54297C167.631 6.54297 167.979 6.61328 168.275 6.75391C168.576 6.89062 168.83 7.0918 169.037 7.35742C169.248 7.61914 169.414 7.93555 169.535 8.30664C169.656 8.67773 169.74 9.09766 169.787 9.56641V10.1055C169.744 10.5703 169.66 10.9883 169.535 11.3594C169.414 11.7305 169.248 12.0469 169.037 12.3086C168.83 12.5703 168.576 12.7715 168.275 12.9121C167.975 13.0488 167.623 13.1172 167.221 13.1172C166.842 13.1172 166.498 13.0371 166.189 12.877C165.885 12.7168 165.623 12.4922 165.404 12.2031C165.186 11.9141 165.018 11.5742 164.9 11.1836C164.787 10.7891 164.73 10.3613 164.73 9.90039ZM165.814 9.77734V9.90039C165.814 10.2168 165.846 10.5137 165.908 10.791C165.975 11.0684 166.074 11.3125 166.207 11.5234C166.344 11.7344 166.518 11.9004 166.729 12.0215C166.939 12.1387 167.191 12.1973 167.484 12.1973C167.844 12.1973 168.141 12.1211 168.375 11.9688C168.609 11.8164 168.795 11.6152 168.932 11.3652C169.072 11.1152 169.182 10.8438 169.26 10.5508V9.13867C169.217 8.92383 169.15 8.7168 169.061 8.51758C168.975 8.31445 168.861 8.13477 168.721 7.97852C168.584 7.81836 168.414 7.69141 168.211 7.59766C168.008 7.50391 167.77 7.45703 167.496 7.45703C167.199 7.45703 166.943 7.51953 166.729 7.64453C166.518 7.76562 166.344 7.93359 166.207 8.14844C166.074 8.35938 165.975 8.60547 165.908 8.88672C165.846 9.16406 165.814 9.46094 165.814 9.77734ZM172.904 6.66016V13H171.814V6.66016H172.904ZM171.732 4.97852C171.732 4.80273 171.785 4.6543 171.891 4.5332C172 4.41211 172.16 4.35156 172.371 4.35156C172.578 4.35156 172.736 4.41211 172.846 4.5332C172.959 4.6543 173.016 4.80273 173.016 4.97852C173.016 5.14648 172.959 5.29102 172.846 5.41211C172.736 5.5293 172.578 5.58789 172.371 5.58789C172.16 5.58789 172 5.5293 171.891 5.41211C171.785 5.29102 171.732 5.14648 171.732 4.97852ZM175.729 8.01367V13H174.645V6.66016H175.67L175.729 8.01367ZM175.471 9.58984L175.02 9.57227C175.023 9.13867 175.088 8.73828 175.213 8.37109C175.338 8 175.514 7.67773 175.74 7.4043C175.967 7.13086 176.236 6.91992 176.549 6.77148C176.865 6.61914 177.215 6.54297 177.598 6.54297C177.91 6.54297 178.191 6.58594 178.441 6.67188C178.691 6.75391 178.904 6.88672 179.08 7.07031C179.26 7.25391 179.396 7.49219 179.49 7.78516C179.584 8.07422 179.631 8.42773 179.631 8.8457V13H178.541V8.83398C178.541 8.50195 178.492 8.23633 178.395 8.03711C178.297 7.83398 178.154 7.6875 177.967 7.59766C177.779 7.50391 177.549 7.45703 177.275 7.45703C177.006 7.45703 176.76 7.51367 176.537 7.62695C176.318 7.74023 176.129 7.89648 175.969 8.0957C175.812 8.29492 175.689 8.52344 175.6 8.78125C175.514 9.03516 175.471 9.30469 175.471 9.58984ZM185.859 11.875L187.488 6.66016H188.203L188.062 7.69727L186.404 13H185.707L185.859 11.875ZM184.764 6.66016L186.152 11.9336L186.252 13H185.52L183.68 6.66016H184.764ZM189.762 11.8926L191.086 6.66016H192.164L190.324 13H189.598L189.762 11.8926ZM188.361 6.66016L189.955 11.7871L190.137 13H189.445L187.74 7.68555L187.6 6.66016H188.361ZM194.455 6.66016V13H193.365V6.66016H194.455ZM193.283 4.97852C193.283 4.80273 193.336 4.6543 193.441 4.5332C193.551 4.41211 193.711 4.35156 193.922 4.35156C194.129 4.35156 194.287 4.41211 194.396 4.5332C194.51 4.6543 194.566 4.80273 194.566 4.97852C194.566 5.14648 194.51 5.29102 194.396 5.41211C194.287 5.5293 194.129 5.58789 193.922 5.58789C193.711 5.58789 193.551 5.5293 193.441 5.41211C193.336 5.29102 193.283 5.14648 193.283 4.97852ZM198.85 6.66016V7.49219H195.422V6.66016H198.85ZM196.582 5.11914H197.666V11.4297C197.666 11.6445 197.699 11.8066 197.766 11.916C197.832 12.0254 197.918 12.0977 198.023 12.1328C198.129 12.168 198.242 12.1855 198.363 12.1855C198.453 12.1855 198.547 12.1777 198.645 12.1621C198.746 12.1426 198.822 12.127 198.873 12.1152L198.879 13C198.793 13.0273 198.68 13.0527 198.539 13.0762C198.402 13.1035 198.236 13.1172 198.041 13.1172C197.775 13.1172 197.531 13.0645 197.309 12.959C197.086 12.8535 196.908 12.6777 196.775 12.4316C196.646 12.1816 196.582 11.8457 196.582 11.4238V5.11914ZM201.205 4V13H200.121V4H201.205ZM200.947 9.58984L200.496 9.57227C200.5 9.13867 200.564 8.73828 200.689 8.37109C200.814 8 200.99 7.67773 201.217 7.4043C201.443 7.13086 201.713 6.91992 202.025 6.77148C202.342 6.61914 202.691 6.54297 203.074 6.54297C203.387 6.54297 203.668 6.58594 203.918 6.67188C204.168 6.75391 204.381 6.88672 204.557 7.07031C204.736 7.25391 204.873 7.49219 204.967 7.78516C205.061 8.07422 205.107 8.42773 205.107 8.8457V13H204.018V8.83398C204.018 8.50195 203.969 8.23633 203.871 8.03711C203.773 7.83398 203.631 7.6875 203.443 7.59766C203.256 7.50391 203.025 7.45703 202.752 7.45703C202.482 7.45703 202.236 7.51367 202.014 7.62695C201.795 7.74023 201.605 7.89648 201.445 8.0957C201.289 8.29492 201.166 8.52344 201.076 8.78125C200.99 9.03516 200.947 9.30469 200.947 9.58984Z" fill="#B9BABD"/>
<line x1="222.5" y1="8" x2="344.5" y2="8.00001" stroke="#E8E9EA" stroke-linecap="round"/>
</svg>
