<svg width="17" height="17" viewBox="0 0 17 17" fill="none" xmlns="http://www.w3.org/2000/svg">
<path d="M14.1701 16.4475C14.1026 16.4475 14.0351 16.4475 13.9601 16.44C11.5376 16.1775 9.18258 15.3375 7.15008 14.0175C5.26008 12.8175 3.62508 11.1825 2.42508 9.2925C1.10508 7.2525 0.265084 4.89 0.0100839 2.4675C-0.0199161 2.145 0.0175839 1.8375 0.115084 1.5375C0.212584 1.2375 0.377584 0.9675 0.587584 0.735C0.797584 0.5025 1.05258 0.3225 1.33758 0.195C1.63008 0.0675 1.93758 0 2.25258 0H4.50258C5.02758 0 5.56758 0.1875 5.98758 0.5475C6.40008 0.9 6.67008 1.395 6.74508 1.935C6.83508 2.6025 7.00008 3.2625 7.23258 3.885C7.38258 4.29 7.42008 4.725 7.32258 5.145C7.23258 5.565 7.02258 5.955 6.72258 6.255L6.18258 6.795C7.06758 8.175 8.23758 9.3525 9.62508 10.2375L10.1651 9.6975C10.4726 9.39 10.8626 9.18 11.2826 9.0975C11.7026 9.0075 12.1376 9.0375 12.5426 9.1875C13.1651 9.42 13.8251 9.585 14.4851 9.675C15.0401 9.75 15.5351 10.0275 15.8951 10.4475C16.2476 10.8675 16.4426 11.4 16.4276 11.9475V14.19C16.4276 14.505 16.3676 14.805 16.2401 15.0975C16.1126 15.3825 15.9251 15.645 15.7001 15.855C15.4676 16.065 15.1976 16.23 14.8976 16.3275C14.6576 16.41 14.4176 16.4475 14.1701 16.4475ZM4.51758 1.5H4.51008H2.25258C2.14758 1.5 2.05008 1.5225 1.95258 1.5675C1.85508 1.605 1.76508 1.665 1.69758 1.74C1.62258 1.815 1.57008 1.905 1.54008 2.01C1.51008 2.1075 1.49508 2.2125 1.50258 2.3175C1.73508 4.5 2.49258 6.63 3.68508 8.4825C4.77258 10.1925 6.25008 11.67 7.96008 12.7575C9.80508 13.9575 11.9351 14.7075 14.1101 14.9475C14.2001 14.955 14.3051 14.94 14.4026 14.91C14.5001 14.88 14.5901 14.82 14.6726 14.7525C14.7551 14.685 14.8151 14.595 14.8526 14.4975C14.8976 14.4 14.9126 14.295 14.9126 14.19V11.94C14.9126 11.9325 14.9126 11.925 14.9126 11.925C14.9201 11.7375 14.8526 11.565 14.7326 11.4225C14.6126 11.28 14.4476 11.19 14.2676 11.1675C13.5026 11.07 12.7376 10.875 12.0026 10.605C11.8676 10.5525 11.7176 10.545 11.5826 10.575C11.4401 10.605 11.3126 10.6725 11.2076 10.7775L10.2626 11.73C10.0226 11.97 9.65508 12.015 9.36258 11.85C7.36758 10.7175 5.71758 9.06 4.57758 7.0725C4.42008 6.7575 4.46508 6.39 4.70508 6.15L5.65758 5.1975C5.75508 5.1 5.82258 4.9725 5.85258 4.83C5.88258 4.6875 5.87508 4.545 5.82258 4.41C5.54508 3.675 5.35758 2.91 5.25258 2.1375C5.23008 1.965 5.14008 1.8 5.00508 1.68C4.87008 1.5675 4.69758 1.5 4.51758 1.5Z" fill="#3BB77E"/>
</svg>
