<svg width="44" height="44" viewBox="0 0 44 44" fill="none" xmlns="http://www.w3.org/2000/svg">
<circle cx="22" cy="22" r="22" fill="#27AE60"/>
<path d="M19.6959 23.2478C19.6239 23.2478 18.0399 23.2478 17.3199 23.2478C16.9359 23.2478 16.8159 23.1038 16.8159 22.7438C16.8159 21.7838 16.8159 20.7998 16.8159 19.8398C16.8159 19.4558 16.9599 19.3358 17.3199 19.3358H19.6959C19.6959 19.2638 19.6959 17.8718 19.6959 17.2238C19.6959 16.2638 19.8639 15.3518 20.3439 14.5118C20.8479 13.6478 21.5679 13.0718 22.4799 12.7358C23.0799 12.5198 23.6799 12.4238 24.3279 12.4238H26.6799C27.0159 12.4238 27.1599 12.5678 27.1599 12.9038V15.6398C27.1599 15.9758 27.0159 16.1198 26.6799 16.1198C26.0319 16.1198 25.3839 16.1198 24.7359 16.1438C24.0879 16.1438 23.7519 16.4558 23.7519 17.1278C23.7279 17.8478 23.7519 18.5438 23.7519 19.2878H26.5359C26.9199 19.2878 27.0639 19.4318 27.0639 19.8158V22.7198C27.0639 23.1038 26.9439 23.2238 26.5359 23.2238C25.6719 23.2238 23.8239 23.2238 23.7519 23.2238V31.0478C23.7519 31.4558 23.6319 31.5998 23.1999 31.5998C22.1919 31.5998 21.2079 31.5998 20.1999 31.5998C19.8399 31.5998 19.6959 31.4558 19.6959 31.0958C19.6959 28.5758 19.6959 23.3198 19.6959 23.2478Z" fill="white"/>
</svg>
