<svg width="44" height="44" viewBox="0 0 44 44" fill="none" xmlns="http://www.w3.org/2000/svg">
<circle cx="22" cy="22" r="22" fill="#27AE60"/>
<g clip-path="url(#clip0_191_1183)">
<path d="M33.9975 17.0685C33.9412 15.791 33.7346 14.9128 33.4387 14.1518C33.1334 13.344 32.6637 12.6208 32.0484 12.0196C31.4472 11.409 30.7192 10.9346 29.9208 10.6341C29.1554 10.3381 28.2817 10.1315 27.0042 10.0752C25.7172 10.0141 25.3087 10 22.0445 10C18.7803 10 18.3717 10.0141 17.0895 10.0705C15.812 10.1268 14.9338 10.3335 14.173 10.6293C13.365 10.9346 12.6418 11.4042 12.0406 12.0196C11.43 12.6208 10.9557 13.3488 10.655 14.1472C10.3591 14.9128 10.1525 15.7863 10.0962 17.0637C10.0351 18.3507 10.021 18.7593 10.021 22.0235C10.021 25.2877 10.0351 25.6962 10.0914 26.9785C10.1478 28.2559 10.3545 29.1342 10.6505 29.8952C10.9557 30.703 11.43 31.4262 12.0406 32.0274C12.6418 32.638 13.3698 33.1124 14.1682 33.4129C14.9338 33.7088 15.8073 33.9154 17.0849 33.9717C18.3669 34.0283 18.7757 34.0422 22.0399 34.0422C25.3041 34.0422 25.7127 34.0283 26.9949 33.9717C28.2723 33.9154 29.1506 33.7088 29.9114 33.4129C31.5272 32.7882 32.8046 31.5108 33.4293 29.8952C33.7251 29.1296 33.9318 28.2559 33.9882 26.9785C34.0445 25.6962 34.0586 25.2877 34.0586 22.0235C34.0586 18.7593 34.0538 18.3507 33.9975 17.0685ZM31.8325 26.8845C31.7807 28.0587 31.5835 28.6928 31.4191 29.1155C31.0151 30.1629 30.1839 30.9941 29.1365 31.3981C28.7138 31.5625 28.0751 31.7597 26.9055 31.8113C25.6374 31.8678 25.2571 31.8817 22.0492 31.8817C18.8414 31.8817 18.4563 31.8678 17.1928 31.8113C16.0186 31.7597 15.3846 31.5625 14.9619 31.3981C14.4406 31.2055 13.9662 30.9002 13.5811 30.501C13.1819 30.1111 12.8766 29.6415 12.684 29.1202C12.5196 28.6975 12.3224 28.0587 12.2708 26.8893C12.2143 25.6212 12.2004 25.2407 12.2004 22.0328C12.2004 18.825 12.2143 18.4399 12.2708 17.1766C12.3224 16.0024 12.5196 15.3683 12.684 14.9456C12.8766 14.4242 13.1819 13.95 13.5859 13.5647C13.9756 13.1655 14.4452 12.8602 14.9666 12.6677C15.3893 12.5034 16.0282 12.3061 17.1975 12.2544C18.4657 12.1981 18.8462 12.184 22.0538 12.184C25.2665 12.184 25.6468 12.1981 26.9103 12.2544C28.0845 12.3061 28.7185 12.5034 29.1412 12.6677C29.6624 12.8602 30.1369 13.1655 30.522 13.5647C30.9212 13.9546 31.2265 14.4242 31.4191 14.9456C31.5835 15.3683 31.7807 16.007 31.8325 17.1766C31.8888 18.4447 31.9029 18.825 31.9029 22.0328C31.9029 25.2407 31.8888 25.6164 31.8325 26.8845Z" fill="white"/>
<path d="M22.0443 15.8477C18.6346 15.8477 15.8682 18.6139 15.8682 22.0238C15.8682 25.4336 18.6346 28.1999 22.0443 28.1999C25.4541 28.1999 28.2204 25.4336 28.2204 22.0238C28.2204 18.6139 25.4541 15.8477 22.0443 15.8477ZM22.0443 26.0301C19.8323 26.0301 18.038 24.236 18.038 22.0238C18.038 19.8116 19.8323 18.0175 22.0443 18.0175C24.2565 18.0175 26.0506 19.8116 26.0506 22.0238C26.0506 24.236 24.2565 26.0301 22.0443 26.0301Z" fill="white"/>
<path d="M29.9068 15.603C29.9068 16.3992 29.2612 17.0448 28.4648 17.0448C27.6686 17.0448 27.0229 16.3992 27.0229 15.603C27.0229 14.8066 27.6686 14.1611 28.4648 14.1611C29.2612 14.1611 29.9068 14.8066 29.9068 15.603Z" fill="white"/>
</g>
<defs>
<clipPath id="clip0_191_1183">
<rect width="24" height="24.0423" fill="white" transform="translate(10 10)"/>
</clipPath>
</defs>
</svg>
