<svg width="44" height="44" viewBox="0 0 44 44" fill="none" xmlns="http://www.w3.org/2000/svg">
<circle cx="22" cy="22" r="22" fill="#27AE60"/>
<path d="M31.5999 31.6007V24.5687C31.5999 21.1127 30.8559 18.4727 26.8239 18.4727C24.8799 18.4727 23.5839 19.5287 23.0559 20.5367H23.0079V18.7847H19.1919V31.6007H23.1759V25.2407C23.1759 23.5607 23.4879 21.9527 25.5519 21.9527C27.5919 21.9527 27.6159 23.8487 27.6159 25.3367V31.5767H31.5999V31.6007Z" fill="white"/>
<path d="M12.7119 18.7842H16.6959V31.6002H12.7119V18.7842Z" fill="white"/>
<path d="M14.7039 12.4004C13.4319 12.4004 12.3999 13.4324 12.3999 14.7044C12.3999 15.9764 13.4319 17.0324 14.7039 17.0324C15.9759 17.0324 17.0079 15.9764 17.0079 14.7044C17.0079 13.4324 15.9759 12.4004 14.7039 12.4004Z" fill="white"/>
</svg>
